<svg width="60" height="60" viewBox="0 0 60 60" fill="none" xmlns="http://www.w3.org/2000/svg">
<circle cx="30" cy="30" r="30" fill="#FFC204"/>
<path d="M11.5666 45.7582L11.5667 45.7583C11.9861 46.1781 12.5542 46.4148 13.1471 46.4169C13.1475 46.4169 13.1478 46.417 13.1482 46.417L25.9041 46.4169C25.8144 46.0143 25.7689 45.6015 25.7694 45.1858V45.1864L26.7694 45.1863L25.7694 45.185L25.7693 41.8395V41.8385C25.7714 39.7133 26.5235 37.657 27.893 36.0324L28.6576 36.677L27.893 36.0324C28.9404 34.79 30.2975 33.8611 31.8145 33.332C31.6144 32.9727 31.4386 32.6 31.2886 32.2164H18.0027C16.1235 32.2221 14.3225 32.9719 12.993 34.3023L11.5666 45.7582ZM11.5666 45.7582C11.1472 45.3385 10.9104 44.7695 10.9082 44.1753M11.5666 45.7582L10.9082 44.1753M44.4787 28.8884L44.4787 28.832C44.4642 27.6057 43.9712 26.4328 43.1041 25.5648C42.2237 24.6835 41.0297 24.1885 39.785 24.1885H39.7849C38.5404 24.1884 37.3464 24.6834 36.4658 25.5645C35.5854 26.4455 35.0905 27.6408 35.0904 28.8876L44.4787 28.8884ZM44.4787 28.8884C44.4786 30.1352 43.9837 31.3306 43.1033 32.2115M44.4787 28.8884L43.1033 32.2115M10.9082 44.1753V39.3179C10.9141 37.436 11.6637 35.6328 12.9929 34.3024L10.9082 44.1753ZM43.1033 32.2115C42.2228 33.0926 41.0288 33.5875 39.7842 33.5875L43.1033 32.2115ZM25.2146 27.7862C23.8012 27.7726 22.4218 27.3468 21.2459 26.5603L21.2458 26.5602C20.0502 25.7606 19.1182 24.6241 18.5679 23.2941L18.5678 23.2941C18.0175 21.9642 17.8735 20.5007 18.1541 19.0884L18.1541 19.0884C18.4347 17.6766 19.1272 16.3797 20.1441 15.3618L20.1441 15.3618C21.1608 14.3441 22.4562 13.651 23.8664 13.3704L23.8665 13.3703C25.2765 13.0895 26.7381 13.2336 28.0663 13.7843L28.0663 13.7843C29.3947 14.3351 30.5302 15.2678 31.3291 16.4647L31.3291 16.4647C32.1281 17.6615 32.5545 19.0687 32.5545 20.5083C32.5545 22.4387 31.7883 24.2898 30.4248 25.6549C29.0613 27.0196 27.2122 27.7862 25.2844 27.7862H25.2146ZM31.5413 38.6072L31.5414 38.6072C32.3982 37.7494 33.5592 37.2659 34.771 37.2621H44.7987C46.0101 37.2659 47.1712 37.7493 48.0285 38.6073C48.8854 39.4649 49.3687 40.6274 49.3727 41.8413C49.3727 41.8417 49.3727 41.8422 49.3727 41.8426L49.3722 45.1834C49.3722 45.1837 49.3722 45.1841 49.3722 45.1844C49.371 45.5113 49.2407 45.8241 49.0101 46.0549C48.7796 46.2857 48.4675 46.4157 48.1418 46.417C48.1414 46.417 48.141 46.417 48.1407 46.417H31.4286C31.4282 46.417 31.4278 46.417 31.4275 46.417C31.1018 46.4157 30.7897 46.2857 30.5589 46.0548C30.3284 45.824 30.1982 45.5113 30.1969 45.1845V41.8414C30.2008 40.6277 30.6842 39.4651 31.5413 38.6072ZM39.7841 33.5875C38.5394 33.5874 37.3456 33.0924 36.4655 32.2112C35.5852 31.3299 35.0904 30.1344 35.0904 28.8877L39.7841 33.5875Z" stroke="white" stroke-width="2"/>
</svg>
