<svg width="206" height="48" viewBox="0 0 206 48" fill="none" xmlns="http://www.w3.org/2000/svg">
<path d="M1.37509 24.8504V1.29346H8.04177H11.4564L11.9442 14.4529V24.363L12.5946 29.8867L16.0093 35.8978L18.7735 37.1975L18.2857 38.8221H16.0093L10.806 37.8473L7.06616 35.8978L3.97672 32.4861L2.0255 28.2621L1.37509 24.8504Z" fill="#C2C1EF"/>
<path d="M23.3264 27.1261L23.8141 1.13232H34.3833L33.4076 13.3169L30.4808 20.4652L26.4157 25.8265L23.3264 27.1261Z" fill="#C2C1EF"/>
<path d="M14.7088 34.2749L12.7576 28.4263H19.9121L24.6275 27.1266L28.8552 22.9026L31.9446 16.7291L33.7332 13.3174L34.3836 17.3789L33.7332 26.6392L30.8064 34.2749L25.1153 37.6866H19.2616L14.7088 34.2749Z" fill="#C2C1EF"/>
<path d="M0.0799385 12.9819C0.139893 22.1603 0.21983 26.3412 0.399693 27.1775C1.30117 31.3685 1.93858 31.4392 2.75788 32.8118C4.07686 35.0218 7.83397 37.9485 10.7917 39.1033C12.2106 39.6607 15.6879 40.0788 18.8056 40.0987C21.4235 40.0987 23.0698 39.7493 24.6885 39.2516C25.6877 38.9529 26.1928 38.7565 26.9922 38.2985C27.8116 37.8406 28.6091 37.2516 28.9888 37.0326C30.7674 36.0372 33.5342 32.115 34.2936 29.6462C34.4735 29.0489 34.6406 28.4521 34.7512 27.874C35.051 27.1573 35.7479 25.3762 35.3528 13.4797L35.4128 0.000976562H29.1175H22.8025L22.7825 8.40278C22.7625 16.9838 22.5627 23.6335 22.3029 24.8879C22.223 25.2661 21.8032 25.9829 21.4035 26.4806C20.784 27.2173 20.4243 27.4362 19.4051 27.7549C18.3259 28.0534 17.9662 28.0734 17.0469 27.8942C15.9078 27.6752 14.5488 26.9784 13.9693 26.3611C13.7894 26.1422 13.4497 25.4852 13.2298 24.8879C12.8301 23.8526 12.8101 23.2752 12.6902 11.9069L12.5503 0.000976562H6.27518H0L0.0799385 12.9819ZM10.6318 13.8381C10.7118 21.0054 10.8516 26.2418 10.9716 26.9187C11.671 30.6418 13.0099 33.648 14.9085 35.7584C15.628 36.5549 16.3874 37.2942 16.6272 37.3738C16.7871 37.4959 16.9813 37.6798 17.1269 37.772C18.2259 38.4688 17.1269 38.2697 15.8278 38.0707C15.4881 37.9512 14.1491 37.7096 13.2098 37.5503C9.99232 36.973 7.23638 35.4928 4.73636 32.3965C4.10593 31.6157 4.07326 31.6038 3.73712 30.9032C3.63721 30.8036 3.19075 29.9005 2.95093 29.2036C1.95171 26.3765 1.8186 25.963 1.8186 13.6191C1.8186 7.26794 1.87856 1.99193 1.95849 1.91229C2.03844 1.85256 3.99693 1.81274 6.29516 1.83265L10.5119 1.89238L10.6318 13.8381ZM33.2345 3.88333C33.1345 7.06884 32.7149 10.2969 32.5149 11.0507C32.415 11.6905 32.1353 12.925 32.0154 13.7811C31.4605 15.7635 31.3558 16.2642 30.799 17.6578C30.2926 18.5653 30.1605 19.208 29.7357 19.8697C28.8764 21.7611 28.1311 22.6349 26.3924 24.4467C24.6084 25.9445 24.124 26.8505 24.4013 25.1666C24.5212 24.868 24.6011 20.1693 24.6011 13.5195C24.6011 4.28152 24.3613 1.97204 24.6011 1.8924C25.1007 1.79285 28.598 1.75304 30.8962 1.79285H33.1945L33.2345 3.88333ZM33.5342 21.4037C33.4143 26.1819 32.395 29.7458 30.3966 32.4137C28.8777 34.4643 27.8786 35.3204 25.9401 36.2562C24.5611 36.9131 24.1215 37.0326 23.0023 37.0326C20.0046 37.0326 17.2068 35.4797 15.4481 32.8715C14.7486 31.8164 13.8494 29.5666 14.0492 29.3476C14.1091 29.3077 14.5688 29.4073 15.0885 29.5865C16.4473 30.0445 20.4243 29.8852 22.2429 29.2879C23.8417 28.7702 26.75 26.6504 27.8691 25.3762C28.8484 24.2811 30.7773 21.602 31.177 20.6463C31.3369 20.268 31.8487 19.2163 32.2284 18.3402C32.6082 17.4642 32.8846 16.541 32.9845 16.2223C33.2443 15.2269 33.4099 15.2458 33.5342 21.4037Z" fill="#353535"/>
<path d="M49.4708 21.6611C50.803 21.6611 52.0242 21.9934 53.1344 22.658C54.2693 23.298 55.1698 24.1842 55.8359 25.3165C56.502 26.4242 56.835 27.6427 56.835 28.9719V40.1227H54.2816V28.9719C54.2816 28.1103 54.0596 27.3227 53.6155 26.6088C53.1961 25.8703 52.6163 25.2919 51.8762 24.8734C51.1361 24.4303 50.3343 24.2088 49.4708 24.2088C48.6074 24.2088 47.8056 24.4303 47.0654 24.8734C46.3253 25.2919 45.7332 25.8703 45.2892 26.6088C44.8698 27.3227 44.6601 28.1103 44.6601 28.9719V40.1227H42.1436V22.1411H44.6601V23.7657C45.2768 23.0765 45.9923 22.5596 46.8064 22.215C47.6452 21.8457 48.5333 21.6611 49.4708 21.6611ZM62.9524 16.5288C63.3964 16.5288 63.7788 16.6888 64.0995 17.0088C64.4203 17.3288 64.5806 17.7103 64.5806 18.1534C64.5806 18.6211 64.4203 19.015 64.0995 19.335C63.7788 19.655 63.3964 19.815 62.9524 19.815C62.4836 19.815 62.0889 19.655 61.7682 19.335C61.4474 19.015 61.2871 18.6211 61.2871 18.1534C61.2871 17.7103 61.4474 17.3288 61.7682 17.0088C62.0889 16.6888 62.4836 16.5288 62.9524 16.5288ZM64.2106 21.6611V40.1227H61.6571V21.6611H64.2106ZM86.3199 21.735L79.0297 40.1227H76.3283L69.0381 21.735H71.7396L77.6975 36.615L83.6185 21.735H86.3199ZM90.8459 32.258C91.1419 33.8334 91.919 35.1503 93.1772 36.2088C94.4355 37.2427 95.8787 37.7596 97.5069 37.7596C98.7158 37.7596 99.826 37.4765 100.837 36.9103C101.849 36.3442 102.663 35.5688 103.28 34.5842L105.463 35.8396C104.624 37.1934 103.502 38.2765 102.096 39.0888C100.689 39.9011 99.1599 40.3073 97.5069 40.3073C95.8293 40.3073 94.2751 39.8888 92.8442 39.0519C91.4133 38.215 90.2784 37.0827 89.4396 35.655C88.6008 34.2273 88.1814 32.6765 88.1814 31.0027C88.1814 29.3042 88.6008 27.7534 89.4396 26.3503C90.2784 24.9227 91.4133 23.7903 92.8442 22.9534C94.2751 22.1165 95.8293 21.698 97.5069 21.698C99.1845 21.698 100.739 22.1165 102.17 22.9534C103.601 23.7903 104.735 24.9227 105.574 26.3503C106.413 27.7534 106.832 29.3042 106.832 31.0027C106.832 31.298 106.808 31.7165 106.758 32.258H90.8459ZM97.5069 24.2088C96.4214 24.2088 95.3606 24.4673 94.3244 24.9842C93.2883 25.4765 92.4495 26.1657 91.808 27.0519C91.1666 27.9134 90.8459 28.8488 90.8459 29.858H104.168C104.168 28.8488 103.847 27.9134 103.206 27.0519C102.564 26.1657 101.726 25.4765 100.689 24.9842C99.678 24.4673 98.6171 24.2088 97.5069 24.2088ZM119.747 24.3934C119.18 24.1473 118.612 24.0242 118.045 24.0242C116.885 24.0242 115.886 24.4427 115.047 25.2796C114.208 26.1165 113.789 27.1134 113.789 28.2703V40.1227H111.273V28.2703C111.273 26.9411 111.618 25.735 112.309 24.6519C113.024 23.5442 113.949 22.7196 115.084 22.178L115.158 22.1411C116.071 21.7227 117.033 21.5134 118.045 21.5134C119.624 21.5134 121.03 21.9934 122.263 22.9534L119.747 24.3934ZM127.071 35.175C127.269 35.8642 127.577 36.4057 127.996 36.7996C128.687 37.4396 129.699 37.7596 131.031 37.7596C132.19 37.7596 133.128 37.4888 133.843 36.9473C134.559 36.4057 134.916 35.7042 134.916 34.8427C134.916 34.0303 134.756 33.4273 134.435 33.0334C134.115 32.6396 133.695 32.3934 133.177 32.295C132.684 32.1719 131.993 32.098 131.105 32.0734C129.822 31.9996 128.773 31.8642 127.959 31.6673C127.145 31.4457 126.405 30.9657 125.739 30.2273C124.925 29.218 124.518 28.1103 124.518 26.9042C124.518 26.6088 124.53 26.3873 124.555 26.2396C124.752 24.6888 125.406 23.5073 126.516 22.695C127.626 21.858 129.119 21.4396 130.994 21.4396H131.031C132.412 21.4396 133.535 21.698 134.398 22.215C135.262 22.7319 135.928 23.3596 136.397 24.098C136.89 24.9103 137.198 25.7596 137.322 26.6457H134.731C134.682 26.3011 134.522 25.895 134.25 25.4273C133.634 24.4919 132.56 23.9996 131.031 23.9503C129.477 23.9503 128.453 24.2088 127.959 24.7257C127.466 25.2427 127.17 25.8457 127.071 26.535C127.046 26.6334 127.034 26.7688 127.034 26.9411C127.034 27.5319 127.244 28.0611 127.663 28.5288C128.009 28.9473 128.453 29.2303 128.995 29.378C129.538 29.5011 130.315 29.5996 131.327 29.6734C132.141 29.7227 132.832 29.7965 133.399 29.895C133.991 29.9934 134.546 30.178 135.064 30.4488C136.668 31.3103 137.47 32.775 137.47 34.8427C137.47 35.5565 137.322 36.2457 137.026 36.9103C136.754 37.5503 136.36 38.1165 135.842 38.6088C134.682 39.7411 133.091 40.3073 131.068 40.3073C129.094 40.3073 127.491 39.7534 126.257 38.6457C125.295 37.7103 124.703 36.5534 124.481 35.175H127.071ZM143.47 32.258C143.766 33.8334 144.543 35.1503 145.801 36.2088C147.059 37.2427 148.503 37.7596 150.131 37.7596C151.34 37.7596 152.45 37.4765 153.461 36.9103C154.473 36.3442 155.287 35.5688 155.904 34.5842L158.087 35.8396C157.248 37.1934 156.126 38.2765 154.72 39.0888C153.313 39.9011 151.784 40.3073 150.131 40.3073C148.453 40.3073 146.899 39.8888 145.468 39.0519C144.037 38.215 142.902 37.0827 142.064 35.655C141.225 34.2273 140.805 32.6765 140.805 31.0027C140.805 29.3042 141.225 27.7534 142.064 26.3503C142.902 24.9227 144.037 23.7903 145.468 22.9534C146.899 22.1165 148.453 21.698 150.131 21.698C151.808 21.698 153.363 22.1165 154.794 22.9534C156.224 23.7903 157.359 24.9227 158.198 26.3503C159.037 27.7534 159.456 29.3042 159.456 31.0027C159.456 31.298 159.432 31.7165 159.382 32.258H143.47ZM150.131 24.2088C149.045 24.2088 147.984 24.4673 146.948 24.9842C145.912 25.4765 145.073 26.1657 144.432 27.0519C143.79 27.9134 143.47 28.8488 143.47 29.858H156.792C156.792 28.8488 156.471 27.9134 155.83 27.0519C155.188 26.1657 154.35 25.4765 153.313 24.9842C152.302 24.4673 151.241 24.2088 150.131 24.2088ZM172.37 24.3934C171.803 24.1473 171.235 24.0242 170.668 24.0242C169.508 24.0242 168.509 24.4427 167.67 25.2796C166.832 26.1165 166.412 27.1134 166.412 28.2703V40.1227H163.896V28.2703C163.896 26.9411 164.241 25.735 164.932 24.6519C165.647 23.5442 166.573 22.7196 167.707 22.178L167.781 22.1411C168.694 21.7227 169.656 21.5134 170.668 21.5134C172.247 21.5134 173.653 21.9934 174.887 22.9534L172.37 24.3934ZM179.863 16.5288C180.307 16.5288 180.689 16.6888 181.01 17.0088C181.331 17.3288 181.491 17.7103 181.491 18.1534C181.491 18.6211 181.331 19.015 181.01 19.335C180.689 19.655 180.307 19.815 179.863 19.815C179.394 19.815 178.999 19.655 178.678 19.335C178.358 19.015 178.197 18.6211 178.197 18.1534C178.197 17.7103 178.358 17.3288 178.678 17.0088C178.999 16.6888 179.394 16.5288 179.863 16.5288ZM181.121 21.6611V40.1227H178.567V21.6611H181.121ZM203.516 22.1411V40.1227H200.962V36.7257C199.26 39.1134 196.99 40.3073 194.153 40.3073C192.451 40.3073 190.884 39.9011 189.453 39.0888C188.022 38.2519 186.888 37.1196 186.049 35.6919C185.235 34.2642 184.828 32.7134 184.828 31.0396C184.828 29.3411 185.235 27.778 186.049 26.3503C186.888 24.9227 188.022 23.8027 189.453 22.9903C190.884 22.1534 192.451 21.735 194.153 21.735C195.905 21.735 197.336 22.1042 198.446 22.8427C199.581 23.5565 200.419 24.3319 200.962 25.1688V22.1411H203.516ZM194.153 37.7965C195.387 37.7965 196.522 37.5011 197.558 36.9103C198.594 36.295 199.408 35.4703 200 34.4365C200.617 33.4027 200.925 32.2703 200.925 31.0396C200.925 29.8088 200.617 28.6765 200 27.6427C199.408 26.5842 198.594 25.7596 197.558 25.1688C196.522 24.5534 195.387 24.2457 194.153 24.2457C192.92 24.2457 191.772 24.5534 190.712 25.1688C189.675 25.7596 188.849 26.5842 188.232 27.6427C187.64 28.6765 187.344 29.8088 187.344 31.0396C187.344 32.2703 187.64 33.4027 188.232 34.4365C188.849 35.4703 189.675 36.295 190.712 36.9103C191.772 37.5011 192.92 37.7965 194.153 37.7965Z" fill="#353535"/>
</svg>
