<svg width="50" height="50" viewBox="0 0 50 50" fill="none" xmlns="http://www.w3.org/2000/svg">
<circle cx="25" cy="25" r="25" fill="#4B7DBE"/>
<path d="M37.1693 13.0003H13.8302C13.3716 13.0003 13 13.3983 13 13.8894V24.6126V24.6123C13 28.163 14.3169 31.5682 16.661 34.0788C19.0053 36.5895 22.1848 38 25.5 38C28.8152 38 31.9948 36.5896 34.339 34.0788C36.6831 31.5681 38 28.1631 38 24.6123V13.8891C38 13.398 37.6284 13 37.1698 13L37.1693 13.0003ZM36.3391 24.6122V24.6119C36.3391 27.6908 35.1971 30.6438 33.1644 32.8211C31.1316 34.9985 28.3744 36.2215 25.4994 36.2215C22.6243 36.2215 19.8674 34.9984 17.8344 32.8211C15.8016 30.6441 14.6596 27.6911 14.6596 24.6119V14.7783H36.339L36.3391 24.6122ZM20.3 23.8046C19.9759 23.4574 19.9756 22.8945 20.2998 22.5471C20.624 22.1999 21.1498 22.1997 21.4739 22.5468L25.4526 26.8081L29.4289 22.5468C29.7533 22.1994 30.2791 22.1994 30.6033 22.5468C30.9277 22.8943 30.9277 23.4574 30.6033 23.8046L26.0372 28.6943C25.8815 28.8613 25.6702 28.955 25.4501 28.955C25.2297 28.955 25.0184 28.8613 24.8628 28.6943L20.3 23.8046Z" fill="white"/>
</svg>
