<svg width="50" height="50" viewBox="0 0 50 50" fill="none" xmlns="http://www.w3.org/2000/svg">
<circle cx="25" cy="25" r="25" fill="#4B7DBE"/>
<path d="M23.0909 26.55C23.0909 27.031 22.9636 27.46 22.7345 27.85C22.3018 27.083 21.4873 26.55 20.5455 26.55C19.6036 26.55 18.7891 27.083 18.3564 27.85C18.14 27.46 18 27.031 18 26.55C18 25.12 19.1455 23.95 20.5455 23.95C21.9455 23.95 23.0909 25.12 23.0909 26.55ZM39 25.9V29.8C39 30.515 38.4273 31.1 37.7273 31.1H36.4545V32.4C36.4545 33.843 35.3218 35 33.9091 35H16.0909C14.6909 35 13.5455 33.843 13.5455 32.4V31.1H12.2727C11.5727 31.1 11 30.515 11 29.8V25.9C11 25.185 11.5727 24.6 12.2727 24.6H13.5455C13.5455 19.569 17.5291 15.5 22.4545 15.5H23.7273V13.849C22.9636 13.407 22.4545 12.562 22.4545 11.6C22.4545 10.17 23.6 9 25 9C26.4 9 27.5455 10.17 27.5455 11.6C27.5455 12.562 27.0364 13.407 26.2727 13.849V15.5H27.5455C32.4709 15.5 36.4545 19.569 36.4545 24.6H37.7273C38.4273 24.6 39 25.185 39 25.9ZM36.4545 27.2H33.9091V24.6C33.9091 21.012 31.0582 18.1 27.5455 18.1H22.4545C18.9418 18.1 16.0909 21.012 16.0909 24.6V27.2H13.5455V28.5H16.0909V32.4H33.9091V28.5H36.4545V27.2ZM29.4545 23.95C28.0545 23.95 26.9091 25.12 26.9091 26.55C26.9091 27.031 27.0491 27.46 27.2655 27.85C27.6982 27.083 28.5127 26.55 29.4545 26.55C30.3964 26.55 31.2109 27.083 31.6436 27.85C31.8727 27.46 32 27.031 32 26.55C32 25.12 30.8673 23.95 29.4545 23.95Z" fill="white"/>
</svg>
