<svg width="50" height="50" viewBox="0 0 50 50" fill="none" xmlns="http://www.w3.org/2000/svg">
<circle cx="25" cy="25" r="25" fill="#4B7DBE"/>
<path d="M21.108 36.9403C20.9707 36.8618 20.8113 36.7682 20.6547 36.6487L20.6542 36.6483C18.3897 34.9062 17.4998 32.5279 17.1803 30.5634C16.8611 28.5998 17.1093 27.0372 17.1323 26.9033L17.1342 26.8926L17.1375 26.8823C17.1395 26.8765 17.1424 26.8655 17.1462 26.85L17.1477 26.8438L17.1478 26.8439C17.3981 25.9829 17.7687 25.445 18.1823 25.1233C18.5966 24.801 19.04 24.7063 19.415 24.7063H19.8816V15.2598C19.8816 14.0424 20.9747 13.0803 22.2835 13.0803C23.5923 13.0803 24.6854 14.0427 24.6854 15.2598V20.7784C25.0172 20.5751 25.4049 20.4526 25.8232 20.4526C26.5982 20.4526 27.2766 20.8595 27.6712 21.4622C28.0655 21.091 28.5939 20.8585 29.1796 20.8585C29.9545 20.8585 30.6329 21.2654 31.0275 21.8681C31.4219 21.4969 31.9502 21.2645 32.5359 21.2645C33.7583 21.2645 34.7543 22.2605 34.7543 23.4829V24.0454L34.758 24.1239L34.7579 24.1239L34.7583 24.1324C34.8479 25.8398 34.9766 28.2919 34.7441 30.6426C34.5119 32.9897 33.9164 35.2767 32.5225 36.6106L32.5223 36.6107C32.3363 36.7882 32.1307 36.9092 31.9635 37.0064M21.108 36.9403C21.108 36.9403 21.1079 36.9403 21.1079 36.9403L21.1829 36.8104L21.1085 36.9406C21.1083 36.9405 21.1082 36.9404 21.108 36.9403ZM21.108 36.9403C21.287 37.0437 21.3803 37.1041 21.431 37.153C21.4536 37.1748 21.4623 37.1893 21.4664 37.199C21.4704 37.2085 21.4739 37.2221 21.4739 37.2476V40.9358C21.4739 41.233 21.7166 41.4761 22.0143 41.4761H31.1229C31.4202 41.4761 31.6633 41.2335 31.6633 40.9358V37.2476C31.6633 37.2258 31.6657 37.2185 31.6668 37.2158C31.6676 37.2138 31.6706 37.2062 31.6863 37.1907C31.724 37.1533 31.8 37.1021 31.9635 37.0064M31.9635 37.0064C31.9635 37.0063 31.9636 37.0063 31.9637 37.0062L31.8879 36.8768L31.9633 37.0065C31.9633 37.0064 31.9634 37.0064 31.9635 37.0064ZM31.4118 36.0752L31.4102 36.0762L31.3981 36.0832C31.0841 36.2668 30.5747 36.5646 30.5747 37.2477V38.1202L22.5466 38.12V37.2475C22.5466 36.5286 21.997 36.2112 21.6536 36.0129L21.6417 36.0061C21.6414 36.0059 21.6412 36.0058 21.6409 36.0056C21.6175 35.9917 21.5948 35.9785 21.5728 35.9655C21.4717 35.9063 21.3845 35.8553 21.3061 35.7943L21.3055 35.7939C19.3707 34.3045 18.5754 32.2315 18.2719 30.473C17.9737 28.7454 18.1528 27.3346 18.184 27.1129C18.3922 26.4187 18.6593 26.0945 18.8805 25.9404C19.1008 25.7869 19.2963 25.7868 19.4032 25.7868H19.8698V27.8653C19.8698 28.1626 20.1125 28.4057 20.4102 28.4057C20.7075 28.4057 20.9506 28.163 20.9506 27.8653V15.2596C20.9506 14.674 21.5189 14.1606 22.272 14.1606C23.0247 14.1606 23.5933 14.6773 23.5933 15.2596V22.226C23.5933 22.2866 23.6037 22.3402 23.6203 22.3899C23.6068 22.4756 23.5933 22.5712 23.5933 22.6711V23.2488C23.5933 23.5461 23.836 23.7891 24.1337 23.7891C24.431 23.7891 24.6741 23.5465 24.6741 23.2488V22.6711C24.6741 22.0437 25.1846 21.5332 25.812 21.5332C26.4394 21.5332 26.9499 22.0437 26.9499 22.6711V23.6546C26.9499 23.9519 27.1926 24.195 27.4903 24.195C27.7876 24.195 28.0307 23.9523 28.0307 23.6546L28.0307 23.6543L28.0298 23.252V23.2517V23.0802C28.0298 22.4529 28.5404 21.9423 29.1677 21.9423C29.7951 21.9423 30.3056 22.4529 30.3056 23.0802V24.0638C30.3056 24.3611 30.5483 24.6042 30.846 24.6042C31.1433 24.6042 31.3864 24.3615 31.3864 24.0638V23.4861C31.3864 22.8587 31.8969 22.3482 32.5243 22.3482C33.1517 22.3482 33.6622 22.8587 33.6622 23.4861V24.0638L33.6622 24.0676L33.6626 24.0763C33.6629 24.0813 33.6637 24.0914 33.6667 24.1039L33.6699 24.1796L33.6699 24.1796L33.67 24.1816C33.7558 25.7102 33.8808 28.0563 33.6799 30.3111C33.5794 31.4382 33.3979 32.5376 33.0915 33.4976C32.7848 34.4587 32.3562 35.2698 31.7684 35.8314L31.7474 35.8514C31.6599 35.9301 31.5462 35.9989 31.4118 36.0752ZM30.575 40.3994H22.5469V39.2046H30.575V40.3994Z" fill="white" stroke="white" stroke-width="0.3"/>
<path d="M22.2755 12.4775C22.4901 12.4775 22.6659 12.3019 22.6659 12.0871V9.39038C22.6659 9.17587 22.4903 9 22.2755 9C22.061 9 21.8852 9.17559 21.8852 9.39038V12.0871C21.8854 12.3019 22.061 12.4775 22.2755 12.4775Z" fill="white"/>
<path d="M20.3437 12.7078C20.4178 12.8328 20.5466 12.903 20.6832 12.903C20.7496 12.903 20.8158 12.8875 20.8784 12.8524C21.0657 12.7432 21.1283 12.505 21.0227 12.3177L19.6763 9.98389C19.5671 9.7966 19.3289 9.73399 19.1416 9.83961C18.9543 9.94877 18.8917 10.187 18.9973 10.3743L20.3437 12.7078Z" fill="white"/>
<path d="M16.984 12.6723L19.3178 14.0187C19.3801 14.0538 19.4466 14.0693 19.513 14.0693C19.6496 14.0693 19.7784 13.9991 19.8524 13.8741C19.9616 13.6868 19.8955 13.4486 19.7082 13.3395L17.3743 11.993C17.1871 11.8839 16.9488 11.95 16.8397 12.1373C16.7341 12.3252 16.7964 12.5631 16.984 12.6723V12.6723Z" fill="white"/>
<path d="M19.4775 15.2759C19.4775 15.0614 19.3019 14.8855 19.0871 14.8855H16.3904C16.1759 14.8855 16 15.0611 16 15.2759C16 15.4904 16.1756 15.6663 16.3904 15.6663H19.0871C19.3019 15.666 19.4775 15.4942 19.4775 15.2759Z" fill="white"/>
<path d="M25.0778 15.2759C25.0778 15.4904 25.2534 15.6663 25.4682 15.6663H28.1649C28.3794 15.6663 28.5553 15.4907 28.5553 15.2759C28.5553 15.0614 28.3797 14.8855 28.1649 14.8855H25.4682C25.2537 14.8855 25.0778 15.0611 25.0778 15.2759Z" fill="white"/>
<path d="M24.7037 13.8786C24.7777 14.0035 24.9065 14.0738 25.0431 14.0738C25.1096 14.0738 25.1757 14.0583 25.2383 14.0231L27.5721 12.6729C27.7594 12.5637 27.8221 12.3255 27.7164 12.1382C27.6073 11.9509 27.3691 11.8883 27.1818 11.9939L24.8479 13.3442C24.6568 13.4534 24.5945 13.6913 24.7037 13.8786V13.8786Z" fill="white"/>
<path d="M23.6771 12.8521C23.7394 12.8872 23.8059 12.9028 23.8723 12.9028C24.0089 12.9028 24.1377 12.8325 24.2117 12.7076L25.5582 10.3737C25.6673 10.1864 25.6012 9.94824 25.4139 9.83908C25.2266 9.72991 24.9884 9.79606 24.8792 9.98336L23.5328 12.3172C23.4272 12.5047 23.4898 12.7429 23.6771 12.8521V12.8521Z" fill="white"/>
</svg>
