<svg width="50" height="50" viewBox="0 0 50 50" fill="none" xmlns="http://www.w3.org/2000/svg">
<circle cx="25" cy="25" r="25" fill="#4B7DBE"/>
<path d="M16.5999 16.5013V13.5556C16.5999 13.1948 16.3051 12.9001 15.9444 12.9001C15.5836 12.9001 15.2889 13.1948 15.2889 13.5556V16.5011C13.9215 16.7918 12.9 18.0082 12.9 19.472C12.9 20.9381 13.9236 22.1261 15.2889 22.4414V37.4444C15.2889 37.8052 15.5836 38.0999 15.9444 38.0999C16.3051 38.0999 16.5999 37.8052 16.5999 37.4444V22.4156C17.9672 22.125 18.9887 20.9085 18.9887 19.4447C18.9887 17.9796 17.9661 16.7909 16.5999 16.5013ZM15.9444 21.1777C14.9996 21.1777 14.211 20.3891 14.211 19.4443C14.211 18.4996 14.9996 17.711 15.9444 17.711C16.8891 17.711 17.6777 18.4996 17.6777 19.4443C17.6777 20.3891 16.8891 21.1777 15.9444 21.1777Z" fill="white" stroke="white" stroke-width="0.2"/>
<mask id="path-3-outside-1_5000_18" maskUnits="userSpaceOnUse" x="20.8887" y="12" width="8" height="27" fill="black">
<rect fill="white" x="20.8887" y="12" width="8" height="27"/>
<path d="M25.3885 29.3609V13.5555C25.3885 13.2499 25.1386 13 24.833 13C24.5275 13 24.2775 13.25 24.2775 13.5555V29.3609C22.9164 29.6108 21.8887 30.8053 21.8887 32.2496C21.8887 33.6941 22.9164 34.8608 24.2775 35.1384V37.4441C24.2775 37.7497 24.5275 37.9996 24.833 37.9996C25.1386 37.9996 25.3885 37.7497 25.3885 37.4441V35.1109C26.7497 34.8609 27.7774 33.6664 27.7774 32.2221C27.7774 30.7774 26.7497 29.6108 25.3885 29.3608V29.3609ZM24.833 34.0553C23.833 34.0553 22.9997 33.2219 22.9997 32.222C22.9997 31.222 23.833 30.3886 24.833 30.3886C25.833 30.3886 26.6664 31.222 26.6664 32.222C26.6664 33.2219 25.833 34.0553 24.833 34.0553Z"/>
</mask>
<path d="M25.3885 29.3609V13.5555C25.3885 13.2499 25.1386 13 24.833 13C24.5275 13 24.2775 13.25 24.2775 13.5555V29.3609C22.9164 29.6108 21.8887 30.8053 21.8887 32.2496C21.8887 33.6941 22.9164 34.8608 24.2775 35.1384V37.4441C24.2775 37.7497 24.5275 37.9996 24.833 37.9996C25.1386 37.9996 25.3885 37.7497 25.3885 37.4441V35.1109C26.7497 34.8609 27.7774 33.6664 27.7774 32.2221C27.7774 30.7774 26.7497 29.6108 25.3885 29.3608V29.3609ZM24.833 34.0553C23.833 34.0553 22.9997 33.2219 22.9997 32.222C22.9997 31.222 23.833 30.3886 24.833 30.3886C25.833 30.3886 26.6664 31.222 26.6664 32.222C26.6664 33.2219 25.833 34.0553 24.833 34.0553Z" fill="white"/>
<path d="M24.2775 29.3609L24.3137 29.5576L24.4775 29.5275V29.3609H24.2775ZM24.2775 35.1384H24.4775V34.9751L24.3175 34.9424L24.2775 35.1384ZM25.3885 35.1109L25.3524 34.9141L25.1885 34.9442V35.1109H25.3885ZM25.3885 29.3608L25.4247 29.1641L25.1885 29.1208V29.3608H25.3885ZM25.5885 29.3609V13.5555H25.1885V29.3609H25.5885ZM25.5885 13.5555C25.5885 13.1395 25.249 12.8 24.833 12.8V13.2C25.0281 13.2 25.1885 13.3604 25.1885 13.5555H25.5885ZM24.833 12.8C24.417 12.8 24.0775 13.1395 24.0775 13.5555H24.4775C24.4775 13.3604 24.6379 13.2 24.833 13.2V12.8ZM24.0775 13.5555V29.3609H24.4775V13.5555H24.0775ZM24.2414 29.1642C22.7861 29.4314 21.6887 30.7081 21.6887 32.2496H22.0887C22.0887 30.9026 23.0467 29.7902 24.3137 29.5576L24.2414 29.1642ZM21.6887 32.2496C21.6887 33.7944 22.7885 35.0388 24.2376 35.3344L24.3175 34.9424C23.0443 34.6827 22.0887 33.5938 22.0887 32.2496H21.6887ZM24.0775 35.1384V37.4441H24.4775V35.1384H24.0775ZM24.0775 37.4441C24.0775 37.8601 24.417 38.1996 24.833 38.1996V37.7996C24.6379 37.7996 24.4775 37.6392 24.4775 37.4441H24.0775ZM24.833 38.1996C25.249 38.1996 25.5885 37.8601 25.5885 37.4441H25.1885C25.1885 37.6392 25.0281 37.7996 24.833 37.7996V38.1996ZM25.5885 37.4441V35.1109H25.1885V37.4441H25.5885ZM25.4247 35.3076C26.88 35.0403 27.9774 33.7636 27.9774 32.2221H27.5774C27.5774 33.5691 26.6194 34.6815 25.3524 34.9141L25.4247 35.3076ZM27.9774 32.2221C27.9774 30.6778 26.8777 29.4309 25.4247 29.1641L25.3524 29.5575C26.6217 29.7906 27.5774 30.877 27.5774 32.2221H27.9774ZM25.1885 29.3608V29.3609H25.5885V29.3608H25.1885ZM24.833 33.8553C23.9435 33.8553 23.1997 33.1115 23.1997 32.222H22.7997C22.7997 33.3324 23.7226 34.2553 24.833 34.2553V33.8553ZM23.1997 32.222C23.1997 31.3324 23.9435 30.5886 24.833 30.5886V30.1886C23.7226 30.1886 22.7997 31.1115 22.7997 32.222H23.1997ZM24.833 30.5886C25.7226 30.5886 26.4664 31.3324 26.4664 32.222H26.8664C26.8664 31.1115 25.9435 30.1886 24.833 30.1886V30.5886ZM26.4664 32.222C26.4664 33.1115 25.7226 33.8553 24.833 33.8553V34.2553C25.9435 34.2553 26.8664 33.3324 26.8664 32.222H26.4664Z" fill="white" mask="url(#path-3-outside-1_5000_18)"/>
<path d="M36.7661 24.9997C36.7661 23.5615 35.743 22.3468 34.3772 22.0304V13.5555C34.3772 13.1947 34.0825 12.9 33.7217 12.9C33.3609 12.9 33.0662 13.1947 33.0662 13.5555V22.0566C31.6989 22.3472 30.6773 23.5637 30.6773 25.0275C30.6773 26.4657 31.7004 27.6804 33.0662 27.9968V37.4444C33.0662 37.8052 33.3609 38.0999 33.7217 38.0999C34.0825 38.0999 34.3772 37.8052 34.3772 37.4444V27.9711C35.7445 27.6805 36.7661 26.464 36.7661 25.0002V24.9997ZM33.7217 26.7329C32.7769 26.7329 31.9883 25.9443 31.9883 24.9995C31.9883 24.0548 32.7769 23.2662 33.7217 23.2662C34.6665 23.2662 35.4551 24.0548 35.4551 24.9995C35.4551 25.9443 34.6665 26.7329 33.7217 26.7329Z" fill="white" stroke="white" stroke-width="0.2"/>
</svg>
