<svg width="50" height="50" viewBox="0 0 50 50" fill="none" xmlns="http://www.w3.org/2000/svg">
<circle cx="25" cy="25" r="25" fill="#4B7DBE"/>
<path d="M13.0001 26.4499C13.0001 20.2347 17.8091 15.1304 23.9338 14.6541V13.86H21.7335C21.2118 13.86 20.8034 13.4518 20.8034 12.9299C20.8034 12.4082 21.2118 12 21.7335 12H27.8583C28.38 12 28.7884 12.4082 28.7884 12.9299C28.7884 13.4518 28.38 13.86 27.8583 13.86H25.794V14.6541C28.0624 14.8355 30.1267 15.6293 31.8505 16.8997L32.8713 15.8789L32.4403 15.4479C32.0774 15.0851 32.0774 14.4952 32.4403 14.1322C32.8034 13.7693 33.393 13.7693 33.7561 14.1322L35.911 16.2873C36.2741 16.6502 36.2741 17.24 35.911 17.6031C35.7296 17.7845 35.5028 17.8752 35.2532 17.8752C35.0037 17.8752 34.7769 17.7845 34.5955 17.6031L34.1643 17.1719L33.2344 18.102C35.3667 20.2343 36.6823 23.2058 36.6823 26.45C36.6823 32.9832 31.3741 38.2913 24.8414 38.2913C18.3081 38.2913 13 32.9832 13 26.45L13.0001 26.4499ZM24.8414 16.4688C19.3291 16.4688 14.8375 20.9375 14.8375 26.4727C14.8375 31.9851 19.3291 36.4761 24.8414 36.4761C30.3534 36.4761 34.8449 31.9848 34.8449 26.4727C34.8449 20.9603 30.3534 16.4688 24.8414 16.4688ZM24.8414 27.221C24.3195 27.221 23.9113 26.8128 23.9113 26.3137V20.5747C23.9113 20.053 24.3196 19.6446 24.8414 19.6446C25.3632 19.6446 25.7714 20.053 25.7714 20.5747V25.3611H28.8111C29.333 25.3611 29.7412 25.7693 29.7412 26.291C29.7412 26.8129 29.3329 27.2211 28.8111 27.2211L24.8414 27.221Z" fill="white"/>
</svg>
