<svg width="89" height="99" viewBox="0 0 89 99" fill="none" xmlns="http://www.w3.org/2000/svg">
<path d="M85.0664 90.7127C81.4247 90.7127 73.173 89.9184 66.0273 83.4866C57.9916 76.2543 53.985 64.3056 54.1223 47.9739C54.2731 29.8925 45.4939 16.7638 28.0259 8.95618C14.8313 3.05736 1.37429 2.56358 1.23948 2.55924C0.533474 2.53603 -0.02081 1.94605 0.000599929 1.24005C0.0220213 0.534045 0.627178 -0.029173 1.3189 0.00117108C1.87675 0.019022 57.0602 2.2754 56.6786 47.9942C56.5465 63.5632 60.2694 74.8629 67.7366 81.5829C76.1774 89.1795 86.5445 88.0932 86.6526 88.0843C87.3577 88.0013 87.9896 88.51 88.0682 89.2107C88.1485 89.9131 87.6442 90.5469 86.9417 90.6272C86.8364 90.6415 86.1599 90.712 85.0656 90.712L85.0664 90.7127Z" fill="#353535"/>
<path d="M77.4187 98.0314C77.0403 98.0314 76.6654 97.8636 76.4128 97.5441C75.9754 96.9889 76.0701 96.1838 76.6252 95.7465L85.0153 89.1361L77.6848 79.6188C77.2537 79.0583 77.3572 78.2559 77.9177 77.8248C78.4782 77.3937 79.2815 77.4981 79.7118 78.0578L87.8153 88.5783C88.2437 89.1335 88.1456 89.9306 87.594 90.3643L78.2106 97.7573C77.975 97.9412 77.6965 98.0313 77.4189 98.0313L77.4187 98.0314Z" fill="#353535"/>
</svg>
