<svg width="50" height="50" viewBox="0 0 50 50" fill="none" xmlns="http://www.w3.org/2000/svg">
<circle cx="25" cy="25" r="25" fill="#4B7DBE"/>
<path d="M25.1515 22.6724C27.2671 22.6724 28.9875 20.9513 28.9875 18.8362C28.9875 16.7211 27.2666 15 25.1515 15C23.0364 14.9998 21.3151 16.7207 21.3151 18.8362C21.3151 20.9515 23.0362 22.6724 25.1515 22.6724Z" fill="white"/>
<path d="M28.6961 22.8325C27.7511 23.6716 26.5117 24.186 25.1517 24.186C23.7911 24.186 22.5518 23.6716 21.6067 22.8325C20.1488 23.3586 19.1016 24.7524 19.1016 26.3895V34.6941H31.2007L31.2009 26.3895C31.2011 24.7524 30.1543 23.3585 28.696 22.8325H28.6961Z" fill="white"/>
<path d="M16.4308 22.801C18.2823 22.801 19.7911 21.3208 19.8446 19.482C19.8187 19.2697 19.8016 19.0549 19.8016 18.8358V18.8351C19.5384 17.2099 18.1292 15.9636 16.4306 15.9636C14.5454 15.9636 13.0118 17.4974 13.0118 19.3824C13.0121 21.2676 14.5458 22.801 16.4309 22.801L16.4308 22.801Z" fill="white"/>
<path d="M13.2928 23.1852C11.9459 23.7652 11 25.1049 11 26.6619V32.9728H17.5884V26.3895C17.5884 25.5265 17.8001 24.714 18.1673 23.9934C17.6261 24.1978 17.0426 24.3152 16.4308 24.3152C15.2399 24.315 14.1461 23.8903 13.2928 23.1853V23.1852Z" fill="white"/>
<path d="M30.4584 19.4804C30.5108 21.3202 32.0201 22.8013 33.8717 22.8013C35.7569 22.8013 37.2905 21.2676 37.2905 19.3825C37.2905 17.4976 35.7567 15.9637 33.8717 15.9637C32.1725 15.9637 30.7626 17.2117 30.5007 18.8385C30.5012 19.0559 30.4843 19.2693 30.4584 19.4804H30.4584Z" fill="white"/>
<path d="M37.0102 23.1851C36.1571 23.8906 35.0633 24.3146 33.8724 24.3146C33.2608 24.3146 32.6771 24.1973 32.1359 23.9928C32.5031 24.7132 32.7149 25.5262 32.7149 26.3891L32.7146 32.9725H39.303V26.6615C39.303 25.1044 38.3571 23.7648 37.0102 23.1848L37.0102 23.1851Z" fill="white"/>
</svg>
