<svg width="202" height="48" viewBox="0 0 202 48" fill="none" xmlns="http://www.w3.org/2000/svg">
<path d="M1.34845 25.1074V1.30566H7.88568H11.234L11.7124 14.6017V24.6149L12.3502 30.196L15.6984 36.2696L18.409 37.5827L17.9307 39.2242H15.6984L10.5962 38.2393L6.92901 36.2696L3.89956 32.8224L1.98623 28.5545L1.34845 25.1074Z" fill="#4B7DBE"/>
<path d="M22.8735 27.407L23.3518 1.14307H33.7157L32.7591 13.4543L29.8891 20.6769L25.9029 26.0938L22.8735 27.407Z" fill="#4B7DBE"/>
<path d="M14.4229 34.6304L12.5096 28.721H19.5252L24.149 27.4077L28.2946 23.1399L31.324 16.9022L33.0779 13.4551L33.7157 17.5588L33.0779 26.9154L30.208 34.6304L24.6274 38.0775H18.8874L14.4229 34.6304Z" fill="#4B7DBE"/>
<path d="M0.0783863 13.1159C0.137176 22.3895 0.215562 26.614 0.391932 27.4589C1.2759 31.6934 1.90094 31.7648 2.70433 33.1518C3.9977 35.3846 7.68185 38.3418 10.5821 39.5086C11.9735 40.0718 15.3833 40.4942 18.4404 40.5144C21.0075 40.5144 22.6218 40.1614 24.2092 39.6584C25.1889 39.3566 25.6842 39.1582 26.468 38.6956C27.2716 38.2328 28.0536 37.6378 28.4259 37.4165C30.17 36.4106 32.8831 32.4478 33.6277 29.9533C33.8042 29.3498 33.9679 28.7468 34.0764 28.1627C34.3704 27.4385 35.0538 25.6388 34.6663 13.6188L34.7251 0H28.5522H22.3597L22.3401 8.4891C22.3205 17.1593 22.1246 23.8781 21.8698 25.1455C21.7914 25.5277 21.3798 26.2519 20.9879 26.7547C20.3805 27.4991 20.0278 27.7204 19.0283 28.0422C17.97 28.344 17.6173 28.364 16.7159 28.1831C15.5989 27.9618 14.2663 27.2576 13.698 26.6341C13.5217 26.4128 13.1885 25.749 12.9729 25.1455C12.581 24.0994 12.5614 23.516 12.4438 12.0296L12.3066 0H6.15333H0L0.0783863 13.1159ZM10.4254 13.9808C10.5038 21.2227 10.6409 26.5134 10.7585 27.1973C11.4444 30.959 12.7573 33.9967 14.619 36.129C15.3245 36.9336 16.0692 37.6807 16.3043 37.7611C16.4612 37.8846 16.6516 38.0702 16.7943 38.1635C17.872 38.8675 16.7943 38.6664 15.5205 38.4651C15.1874 38.3446 13.8744 38.1004 12.9533 37.9394C9.79829 37.3561 7.09587 35.8607 4.64439 32.732C4.0262 31.9432 3.99417 31.9313 3.66456 31.2233C3.56658 31.1227 3.1288 30.2101 2.89363 29.5061C1.91381 26.6496 1.78329 26.2318 1.78329 13.7596C1.78329 7.34248 1.84208 2.01164 1.92046 1.93118C1.99886 1.87082 3.91932 1.83059 6.17293 1.8507L10.3078 1.91105L10.4254 13.9808ZM32.5891 3.92268C32.4912 7.14131 32.0797 10.4029 31.8836 11.1646C31.7856 11.811 31.5113 13.0583 31.3937 13.9232C30.8496 15.9263 30.7471 16.4321 30.2009 17.8403C29.7044 18.7573 29.5749 19.4066 29.1583 20.0753C28.3157 21.9863 27.5849 22.8691 25.8799 24.6996C24.1305 26.2132 23.6555 27.1285 23.9274 25.427C24.045 25.1254 24.1234 20.3779 24.1234 13.659C24.1234 4.32502 23.8883 1.99154 24.1234 1.91108C24.6133 1.81049 28.0427 1.77026 30.2962 1.81049H32.5499L32.5891 3.92268ZM32.8831 21.6251C32.7655 26.453 31.766 30.0539 29.8064 32.7494C28.317 34.8215 27.3373 35.6864 25.4364 36.6319C24.0842 37.2958 23.6531 37.4165 22.5557 37.4165C19.6161 37.4165 16.8727 35.8474 15.1482 33.2122C14.4622 32.146 13.5804 29.8728 13.7764 29.6515C13.8352 29.6113 14.2859 29.7119 14.7955 29.893C16.1279 30.3556 20.0278 30.1946 21.811 29.5912C23.3788 29.0682 26.2306 26.9262 27.3279 25.6388C28.2882 24.5324 30.1796 21.8254 30.5717 20.8598C30.7284 20.4776 31.2303 19.4149 31.6026 18.5298C31.975 17.6447 32.2461 16.7118 32.3441 16.39C32.5988 15.3841 32.7611 15.4032 32.8831 21.6251Z" fill="#353535"/>
<path d="M48.51 21.4933C49.8163 21.4933 51.0138 21.8173 52.1024 22.4653C53.2153 23.0893 54.0983 23.9533 54.7514 25.0573C55.4046 26.1373 55.7312 27.3253 55.7312 28.6213V39.4933H53.2273V28.6213C53.2273 27.7813 53.0096 27.0133 52.5742 26.3173C52.1629 25.5973 51.5944 25.0333 50.8687 24.6253C50.1429 24.1933 49.3567 23.9773 48.51 23.9773C47.6633 23.9773 46.8771 24.1933 46.1513 24.6253C45.4256 25.0333 44.845 25.5973 44.4095 26.3173C43.9983 27.0133 43.7926 27.7813 43.7926 28.6213V39.4933H41.3251V21.9613H43.7926V23.5453C44.3974 22.8733 45.099 22.3693 45.8973 22.0333C46.7198 21.6733 47.5907 21.4933 48.51 21.4933ZM61.7296 16.4893C62.1651 16.4893 62.54 16.6453 62.8545 16.9573C63.169 17.2693 63.3263 17.6413 63.3263 18.0733C63.3263 18.5293 63.169 18.9133 62.8545 19.2253C62.54 19.5373 62.1651 19.6933 61.7296 19.6933C61.27 19.6933 60.8829 19.5373 60.5684 19.2253C60.2539 18.9133 60.0967 18.5293 60.0967 18.0733C60.0967 17.6413 60.2539 17.2693 60.5684 16.9573C60.8829 16.6453 61.27 16.4893 61.7296 16.4893ZM62.9634 21.4933V39.4933H60.4596V21.4933H62.9634ZM84.6434 21.5653L77.4948 39.4933H74.8458L67.6972 21.5653H70.3462L76.1885 36.0733L81.9944 21.5653H84.6434ZM89.0816 31.8253C89.3719 33.3613 90.134 34.6453 91.3677 35.6773C92.6015 36.6853 94.0167 37.1893 95.6134 37.1893C96.7988 37.1893 97.8874 36.9133 98.8792 36.3613C99.8711 35.8093 100.669 35.0533 101.274 34.0933L103.415 35.3173C102.593 36.6373 101.492 37.6933 100.113 38.4853C98.7341 39.2773 97.2342 39.6733 95.6134 39.6733C93.9683 39.6733 92.4443 39.2653 91.0411 38.4493C89.638 37.6333 88.5252 36.5293 87.7027 35.1373C86.8802 33.7453 86.4689 32.2333 86.4689 30.6013C86.4689 28.9453 86.8802 27.4333 87.7027 26.0653C88.5252 24.6733 89.638 23.5693 91.0411 22.7533C92.4443 21.9373 93.9683 21.5293 95.6134 21.5293C97.2584 21.5293 98.7825 21.9373 100.186 22.7533C101.589 23.5693 102.702 24.6733 103.524 26.0653C104.347 27.4333 104.758 28.9453 104.758 30.6013C104.758 30.8893 104.734 31.2973 104.685 31.8253H89.0816ZM95.6134 23.9773C94.5489 23.9773 93.5087 24.2293 92.4926 24.7333C91.4766 25.2133 90.6541 25.8853 90.0251 26.7493C89.3961 27.5893 89.0816 28.5013 89.0816 29.4853H102.145C102.145 28.5013 101.831 27.5893 101.202 26.7493C100.573 25.8853 99.7501 25.2133 98.7341 24.7333C97.7422 24.2293 96.702 23.9773 95.6134 23.9773ZM117.422 24.1573C116.865 23.9173 116.309 23.7973 115.752 23.7973C114.615 23.7973 113.636 24.2053 112.813 25.0213C111.99 25.8373 111.579 26.8093 111.579 27.9373V39.4933H109.112V27.9373C109.112 26.6413 109.45 25.4653 110.128 24.4093C110.829 23.3293 111.736 22.5253 112.849 21.9973L112.922 21.9613C113.817 21.5533 114.76 21.3493 115.752 21.3493C117.301 21.3493 118.679 21.8173 119.889 22.7533L117.422 24.1573ZM124.604 34.6693C124.797 35.3413 125.1 35.8693 125.511 36.2533C126.188 36.8773 127.18 37.1893 128.487 37.1893C129.624 37.1893 130.543 36.9253 131.244 36.3973C131.946 35.8693 132.297 35.1853 132.297 34.3453C132.297 33.5533 132.139 32.9653 131.825 32.5813C131.51 32.1973 131.099 31.9573 130.591 31.8613C130.107 31.7413 129.43 31.6693 128.559 31.6453C127.301 31.5733 126.273 31.4413 125.475 31.2493C124.676 31.0333 123.951 30.5653 123.297 29.8453C122.499 28.8613 122.1 27.7813 122.1 26.6053C122.1 26.3173 122.112 26.1013 122.136 25.9573C122.33 24.4453 122.971 23.2933 124.059 22.5013C125.148 21.6853 126.612 21.2773 128.45 21.2773H128.487C129.841 21.2773 130.942 21.5293 131.789 22.0333C132.635 22.5373 133.289 23.1493 133.748 23.8693C134.232 24.6613 134.534 25.4893 134.655 26.3533H132.115C132.067 26.0173 131.91 25.6213 131.644 25.1653C131.039 24.2533 129.986 23.7733 128.487 23.7253C126.962 23.7253 125.958 23.9773 125.475 24.4813C124.991 24.9853 124.701 25.5733 124.604 26.2453C124.58 26.3413 124.567 26.4733 124.567 26.6413C124.567 27.2173 124.773 27.7333 125.184 28.1893C125.523 28.5973 125.958 28.8733 126.491 29.0173C127.023 29.1373 127.785 29.2333 128.777 29.3053C129.575 29.3533 130.252 29.4253 130.809 29.5213C131.39 29.6173 131.934 29.7973 132.442 30.0613C134.014 30.9013 134.801 32.3293 134.801 34.3453C134.801 35.0413 134.655 35.7133 134.365 36.3613C134.099 36.9853 133.712 37.5373 133.204 38.0173C132.067 39.1213 130.507 39.6733 128.523 39.6733C126.587 39.6733 125.015 39.1333 123.805 38.0533C122.862 37.1413 122.281 36.0133 122.064 34.6693H124.604ZM140.684 31.8253C140.974 33.3613 141.736 34.6453 142.97 35.6773C144.204 36.6853 145.619 37.1893 147.216 37.1893C148.401 37.1893 149.49 36.9133 150.482 36.3613C151.473 35.8093 152.272 35.0533 152.877 34.0933L155.017 35.3173C154.195 36.6373 153.094 37.6933 151.715 38.4853C150.336 39.2773 148.836 39.6733 147.216 39.6733C145.571 39.6733 144.047 39.2653 142.643 38.4493C141.24 37.6333 140.128 36.5293 139.305 35.1373C138.482 33.7453 138.071 32.2333 138.071 30.6013C138.071 28.9453 138.482 27.4333 139.305 26.0653C140.128 24.6733 141.24 23.5693 142.643 22.7533C144.047 21.9373 145.571 21.5293 147.216 21.5293C148.861 21.5293 150.385 21.9373 151.788 22.7533C153.191 23.5693 154.304 24.6733 155.126 26.0653C155.949 27.4333 156.36 28.9453 156.36 30.6013C156.36 30.8893 156.336 31.2973 156.288 31.8253H140.684ZM147.216 23.9773C146.151 23.9773 145.111 24.2293 144.095 24.7333C143.079 25.2133 142.256 25.8853 141.627 26.7493C140.998 27.5893 140.684 28.5013 140.684 29.4853H153.747C153.747 28.5013 153.433 27.5893 152.804 26.7493C152.175 25.8853 151.352 25.2133 150.336 24.7333C149.345 24.2293 148.304 23.9773 147.216 23.9773ZM169.023 24.1573C168.467 23.9173 167.91 23.7973 167.354 23.7973C166.217 23.7973 165.237 24.2053 164.415 25.0213C163.592 25.8373 163.181 26.8093 163.181 27.9373V39.4933H160.713V27.9373C160.713 26.6413 161.052 25.4653 161.729 24.4093C162.431 23.3293 163.338 22.5253 164.451 21.9973L164.524 21.9613C165.419 21.5533 166.362 21.3493 167.354 21.3493C168.902 21.3493 170.281 21.8173 171.491 22.7533L169.023 24.1573ZM176.37 16.4893C176.806 16.4893 177.181 16.6453 177.495 16.9573C177.81 17.2693 177.967 17.6413 177.967 18.0733C177.967 18.5293 177.81 18.9133 177.495 19.2253C177.181 19.5373 176.806 19.6933 176.37 19.6933C175.911 19.6933 175.523 19.5373 175.209 19.2253C174.895 18.9133 174.737 18.5293 174.737 18.0733C174.737 17.6413 174.895 17.2693 175.209 16.9573C175.523 16.6453 175.911 16.4893 176.37 16.4893ZM177.604 21.4933V39.4933H175.1V21.4933H177.604ZM199.564 21.9613V39.4933H197.06V36.1813C195.391 38.5093 193.165 39.6733 190.383 39.6733C188.714 39.6733 187.178 39.2773 185.775 38.4853C184.372 37.6693 183.259 36.5653 182.436 35.1733C181.638 33.7813 181.239 32.2693 181.239 30.6373C181.239 28.9813 181.638 27.4573 182.436 26.0653C183.259 24.6733 184.372 23.5813 185.775 22.7893C187.178 21.9733 188.714 21.5653 190.383 21.5653C192.101 21.5653 193.504 21.9253 194.593 22.6453C195.705 23.3413 196.528 24.0973 197.06 24.9133V21.9613H199.564ZM190.383 37.2253C191.593 37.2253 192.706 36.9373 193.722 36.3613C194.738 35.7613 195.536 34.9573 196.117 33.9493C196.721 32.9413 197.024 31.8373 197.024 30.6373C197.024 29.4373 196.721 28.3333 196.117 27.3253C195.536 26.2933 194.738 25.4893 193.722 24.9133C192.706 24.3133 191.593 24.0133 190.383 24.0133C189.174 24.0133 188.049 24.3133 187.008 24.9133C185.992 25.4893 185.182 26.2933 184.577 27.3253C183.997 28.3333 183.706 29.4373 183.706 30.6373C183.706 31.8373 183.997 32.9413 184.577 33.9493C185.182 34.9573 185.992 35.7613 187.008 36.3613C188.049 36.9373 189.174 37.2253 190.383 37.2253Z" fill="#353535"/>
</svg>
