<svg width="50" height="50" viewBox="0 0 50 50" fill="none" xmlns="http://www.w3.org/2000/svg">
<circle cx="25" cy="25" r="25" fill="#4B7DBE"/>
<mask id="path-2-outside-1_4875_38" maskUnits="userSpaceOnUse" x="9" y="8" width="33" height="33" fill="black">
<rect fill="white" x="9" y="8" width="33" height="33"/>
<path d="M25.5094 9.00013C22.1863 9.00198 18.9514 10.0695 16.2811 12.0453C13.6106 14.0214 11.6459 16.8013 10.6759 19.9761C9.70585 23.151 9.78168 26.5533 10.8923 29.6818C12.0031 32.8106 14.09 35.5003 16.8458 37.3553C16.8458 37.3553 16.8648 37.3553 16.8762 37.378C18.8552 38.7058 21.1152 39.5582 23.4788 39.8683C25.8425 40.1788 28.2463 39.9385 30.5018 39.1663C30.5268 39.1629 30.5511 39.1553 30.5738 39.1437C34.0363 37.9424 36.9616 35.5552 38.8309 32.4055C40.7001 29.2556 41.3926 25.5469 40.7859 21.9356C40.1795 18.3244 38.3127 15.0445 35.5165 12.6768C32.7204 10.3091 29.1753 9.00662 25.5096 9L25.5094 9.00013ZM11.4601 19.9872C14.2948 21.544 17.6137 21.9733 20.752 21.1896C20.7588 21.2927 20.7309 21.3953 20.6725 21.4807C20.5091 21.6833 20.2826 21.8257 20.0289 21.885C19.3469 22.068 18.6418 22.1495 17.936 22.1271C16.9975 22.1461 16.0436 22.1648 15.1465 22.6147C14.5971 22.9243 14.0978 23.3157 13.6667 23.7753L13.5722 23.8661L13.5719 23.8663C13.173 24.2954 12.6915 24.6398 12.1566 24.8796C11.6969 25.0811 11.1652 25.0265 10.756 24.7358V24.4901C10.7539 22.9615 10.9915 21.4422 11.4601 19.9873L11.4601 19.9872ZM21.6036 38.7167C20.5528 38.4327 19.5372 38.0321 18.5756 37.5221C19.1646 37.387 19.7299 37.1639 20.2524 36.8604C20.5098 36.7093 20.7632 36.5502 21.0093 36.3878C21.5743 35.9854 22.1987 35.6742 22.8603 35.4653C23.3424 35.3184 23.8625 35.3616 24.3137 35.5863C24.5035 35.6876 24.655 35.848 24.7451 36.0434C24.8354 36.2385 24.8591 36.4577 24.8132 36.6676C24.658 37.1629 24.0182 37.4237 23.4129 37.5977C22.7314 37.7982 21.9745 38.078 21.6036 38.7167L21.6036 38.7167ZM22.3985 38.9132V38.9135C22.761 38.6186 23.1874 38.4129 23.6436 38.3122C24.4386 38.0701 25.2823 37.7148 25.5361 36.8868V36.887C25.6322 36.5131 25.6023 36.1177 25.451 35.7625C25.3 35.4073 25.0358 35.1114 24.6997 34.921C24.0808 34.5847 23.3538 34.5088 22.6787 34.7092C21.9419 34.9402 21.2467 35.2873 20.6197 35.7377C20.3773 35.8928 20.1389 36.0478 19.8891 36.1876C19.3933 36.4751 18.1519 37.0837 17.2398 36.6979C15.8598 35.7638 14.6467 34.6047 13.6516 33.2687C14.6992 33.6453 15.8228 33.7619 16.9256 33.6089C17.6986 33.4465 18.4494 33.1928 19.1626 32.8529L19.7415 32.6147C21.395 32.0142 23.0918 31.539 24.8172 31.1932L27.9169 30.4748C28.2849 30.3667 28.6691 30.3219 29.0522 30.3424C29.3494 30.3664 29.6135 30.5405 29.7526 30.8037C29.8775 31.1365 29.6731 31.5598 29.1129 32.1534C28.7987 32.4862 27.9774 33.3594 28.3029 34.2896C28.5395 34.7764 28.954 35.1538 29.4612 35.3445C29.6241 35.4257 29.7819 35.5164 29.9343 35.6166C30.3506 35.9125 30.6172 36.3748 30.6648 36.883C30.7026 37.4551 30.542 38.0223 30.2104 38.4899C27.6942 39.3386 24.9944 39.4902 22.3987 38.9285L22.3985 38.9132ZM31.2511 38.0851V38.0853C31.3878 37.6779 31.4443 37.2478 31.4174 36.8189C31.3559 36.0842 30.9704 35.4149 30.3653 34.9926C30.1866 34.8753 30.001 34.7693 29.8091 34.6751C29.4305 34.4786 29.1166 34.2969 29.0105 34.0287C28.9046 33.7603 29.0976 33.2726 29.6575 32.679C29.9754 32.3462 30.8118 31.473 30.4639 30.5392C30.3506 30.2786 30.1695 30.0531 29.939 29.887C29.7085 29.7206 29.4374 29.6193 29.1544 29.594C28.6789 29.5552 28.2005 29.604 27.7424 29.7375L24.6463 30.4595V30.4598C22.8801 30.8203 21.144 31.3158 19.4535 31.9416L18.8669 32.1874C18.2082 32.4965 17.5162 32.7286 16.8041 32.8794C15.6913 33.0645 14.4235 32.8417 12.9248 32.2064C11.7013 30.2168 10.9721 27.9639 10.7976 25.6355C11.0397 25.7257 11.2963 25.7705 11.5545 25.7679C11.8576 25.7673 12.1578 25.7109 12.4402 25.6015C13.0704 25.3232 13.6373 24.9192 14.1056 24.4142L14.2041 24.3234H14.2039C14.5827 23.9165 15.0202 23.5686 15.5023 23.2912C16.2251 22.9131 17.0692 22.9131 17.9623 22.8867V22.8869C18.7387 22.9086 19.5142 22.8155 20.2634 22.6108C20.6792 22.5009 21.0449 22.253 21.3005 21.9077C21.4507 21.6941 21.5225 21.4352 21.504 21.1749C21.4853 20.9146 21.3773 20.6685 21.1983 20.4784L21.047 20.3387L20.8464 20.3917C17.7712 21.2287 14.4898 20.821 11.7134 19.2574C11.9362 18.6703 12.1965 18.0983 12.493 17.5448C13.7745 18.3589 15.2876 18.731 16.8008 18.6047C18.3141 18.4783 19.7443 17.8605 20.8727 16.8453C21.1832 16.5655 21.467 16.2556 21.7431 15.9569C22.0195 15.6581 22.2162 15.4426 22.466 15.2008L22.4662 15.2005C22.937 14.7084 23.5518 14.3775 24.2224 14.2553C24.5189 14.205 24.8238 14.248 25.095 14.378C25.3661 14.508 25.5902 14.7187 25.7362 14.9814C25.8479 15.3263 25.8814 15.6918 25.8347 16.0513C25.816 16.3195 25.816 16.5885 25.8347 16.8567C25.9353 17.7693 26.4797 18.5739 27.2897 19.0074C28.0996 19.4412 29.0717 19.4483 29.8883 19.0266C30.3054 18.7914 30.6877 18.4987 31.0238 18.1571C31.2459 17.9385 31.4837 17.7365 31.7353 17.5521C32.3439 17.1363 33.0905 16.9727 33.8176 17.0956C34.5447 17.2188 35.1958 17.6189 35.6332 18.2117C36.0709 18.8048 36.261 19.5443 36.1636 20.2743C36.0781 20.8149 35.8423 21.3207 35.483 21.734C35.1237 22.147 34.6551 22.4511 34.131 22.6109C33.1016 22.9134 32.0152 22.6109 30.8684 22.3197C29.7783 22.0322 28.6504 21.73 27.5112 21.9415L27.5114 21.9418C26.5808 22.1741 25.7035 22.5824 24.9262 23.1439C24.2288 23.6539 23.4399 24.026 22.6024 24.2404C22.0121 24.3179 21.4138 24.3179 20.8235 24.2404C20.376 24.1929 19.9259 24.174 19.476 24.1837C18.28 24.2367 16.8948 24.8681 16.6827 26.1458C16.631 26.5701 16.702 27 16.8871 27.3852C17.0722 27.7705 17.3639 28.0947 17.7275 28.3196C18.4091 28.7302 19.2075 28.9046 19.9985 28.8149C21.2666 28.7205 22.4398 28.2062 23.5753 27.7073C24.8735 27.1477 26.0959 26.626 27.4016 26.6978C28.2418 26.7916 29.0639 27.0055 29.843 27.3331C30.8609 27.7112 31.9094 28.0891 33.0375 27.9984C33.2569 27.9984 33.4689 27.9494 33.6772 27.9191H33.677C33.9513 27.8645 34.2301 27.8365 34.5096 27.8357C34.6928 27.8249 34.8758 27.8626 35.04 27.9449C35.2042 28.0272 35.3436 28.1514 35.4445 28.3046C35.6451 28.7395 35.2211 29.3292 34.6876 29.6847L34.309 29.9304C33.7791 30.2633 33.1735 30.6375 32.901 31.2878C32.4506 32.32 33.0903 33.5146 33.9608 34.0703V34.0701C34.6166 34.4514 35.3503 34.679 36.1069 34.7357C34.7299 36.1667 33.0782 37.3057 31.251 38.0853L31.2511 38.0851ZM36.7467 34.0474C35.9557 33.9681 35.0737 33.866 34.3962 33.4351C33.8019 33.0569 33.3365 32.2404 33.6393 31.5864C33.9097 31.1433 34.3046 30.7897 34.7749 30.5692C34.9111 30.4822 35.0473 30.3991 35.1761 30.3084C35.9634 29.7754 36.5765 28.849 36.1829 27.9908C36.0255 27.7057 35.7924 27.4697 35.5091 27.3088C35.2258 27.1479 34.9037 27.0685 34.5779 27.0796C34.253 27.0823 33.9287 27.1128 33.609 27.1703C33.416 27.2007 33.2304 27.2307 33.03 27.246C32.0648 27.3178 31.1376 26.9812 30.1497 26.6223V26.6221C29.3041 26.2697 28.4114 26.0416 27.5004 25.9454C26.0093 25.8547 24.6353 26.4596 23.3105 27.038C22.175 27.5333 21.1189 27.9982 19.9798 28.0853V28.0855C19.3567 28.1517 18.7289 28.0193 18.1858 27.7074C17.9466 27.5605 17.7531 27.35 17.6269 27.0997C17.5004 26.8495 17.4463 26.5689 17.4703 26.2896C17.6066 25.4692 18.6059 24.9966 19.5481 24.9588H19.5484C19.9665 24.9522 20.3847 24.9699 20.8011 25.0116C21.4593 25.0986 22.1261 25.0986 22.7843 25.0116C23.7163 24.78 24.5952 24.372 25.3733 23.8095C26.0689 23.3008 26.8549 22.9287 27.6897 22.713C28.6623 22.5315 29.6616 22.796 30.7176 23.0911C31.9176 23.4126 33.1549 23.7415 34.3927 23.3786V23.3783C35.2882 23.1149 36.0467 22.5144 36.5077 21.7034C36.9689 20.8922 37.0969 19.9341 36.8646 19.0308C36.6325 18.1273 36.0583 17.3493 35.2631 16.8604C34.6617 16.4965 33.9695 16.3105 33.2664 16.3245C32.5634 16.3388 31.8791 16.5521 31.2927 16.9398C31.0097 17.1463 30.7414 17.3723 30.4903 17.6165C30.2108 17.9118 29.891 18.1663 29.5404 18.3726C28.9456 18.6827 28.2356 18.6793 27.6443 18.3628C27.0526 18.0466 26.6558 17.4587 26.5842 16.7923C26.5692 16.5618 26.5692 16.3308 26.5842 16.1003C26.6444 15.6179 26.5885 15.128 26.4216 14.6712C26.2144 14.2619 25.8838 13.9275 25.4765 13.7152C25.0691 13.5029 24.6055 13.4235 24.1506 13.4879C23.3052 13.6305 22.5301 14.0462 21.944 14.6712C21.6753 14.9246 21.4255 15.1968 21.1871 15.4576C20.9487 15.7183 20.6536 16.0399 20.3695 16.297H20.3697C19.3591 17.2069 18.0765 17.7585 16.7203 17.8667C15.3641 17.9746 14.0102 17.6328 12.8681 16.8944C14.2676 14.5469 16.2926 12.634 18.7173 11.3691C21.1417 10.1043 23.8703 9.53726 26.5986 9.73136C29.3269 9.92546 31.9475 10.8727 34.1683 12.468C36.3892 14.0633 38.1224 16.2435 39.1748 18.7654C40.2274 21.2872 40.5577 24.0518 40.1289 26.7502C39.7001 29.4486 38.5293 31.9751 36.7469 34.0477L36.7467 34.0474Z"/>
</mask>
<path d="M25.5094 9.00013C22.1863 9.00198 18.9514 10.0695 16.2811 12.0453C13.6106 14.0214 11.6459 16.8013 10.6759 19.9761C9.70585 23.151 9.78168 26.5533 10.8923 29.6818C12.0031 32.8106 14.09 35.5003 16.8458 37.3553C16.8458 37.3553 16.8648 37.3553 16.8762 37.378C18.8552 38.7058 21.1152 39.5582 23.4788 39.8683C25.8425 40.1788 28.2463 39.9385 30.5018 39.1663C30.5268 39.1629 30.5511 39.1553 30.5738 39.1437C34.0363 37.9424 36.9616 35.5552 38.8309 32.4055C40.7001 29.2556 41.3926 25.5469 40.7859 21.9356C40.1795 18.3244 38.3127 15.0445 35.5165 12.6768C32.7204 10.3091 29.1753 9.00662 25.5096 9L25.5094 9.00013ZM11.4601 19.9872C14.2948 21.544 17.6137 21.9733 20.752 21.1896C20.7588 21.2927 20.7309 21.3953 20.6725 21.4807C20.5091 21.6833 20.2826 21.8257 20.0289 21.885C19.3469 22.068 18.6418 22.1495 17.936 22.1271C16.9975 22.1461 16.0436 22.1648 15.1465 22.6147C14.5971 22.9243 14.0978 23.3157 13.6667 23.7753L13.5722 23.8661L13.5719 23.8663C13.173 24.2954 12.6915 24.6398 12.1566 24.8796C11.6969 25.0811 11.1652 25.0265 10.756 24.7358V24.4901C10.7539 22.9615 10.9915 21.4422 11.4601 19.9873L11.4601 19.9872ZM21.6036 38.7167C20.5528 38.4327 19.5372 38.0321 18.5756 37.5221C19.1646 37.387 19.7299 37.1639 20.2524 36.8604C20.5098 36.7093 20.7632 36.5502 21.0093 36.3878C21.5743 35.9854 22.1987 35.6742 22.8603 35.4653C23.3424 35.3184 23.8625 35.3616 24.3137 35.5863C24.5035 35.6876 24.655 35.848 24.7451 36.0434C24.8354 36.2385 24.8591 36.4577 24.8132 36.6676C24.658 37.1629 24.0182 37.4237 23.4129 37.5977C22.7314 37.7982 21.9745 38.078 21.6036 38.7167L21.6036 38.7167ZM22.3985 38.9132V38.9135C22.761 38.6186 23.1874 38.4129 23.6436 38.3122C24.4386 38.0701 25.2823 37.7148 25.5361 36.8868V36.887C25.6322 36.5131 25.6023 36.1177 25.451 35.7625C25.3 35.4073 25.0358 35.1114 24.6997 34.921C24.0808 34.5847 23.3538 34.5088 22.6787 34.7092C21.9419 34.9402 21.2467 35.2873 20.6197 35.7377C20.3773 35.8928 20.1389 36.0478 19.8891 36.1876C19.3933 36.4751 18.1519 37.0837 17.2398 36.6979C15.8598 35.7638 14.6467 34.6047 13.6516 33.2687C14.6992 33.6453 15.8228 33.7619 16.9256 33.6089C17.6986 33.4465 18.4494 33.1928 19.1626 32.8529L19.7415 32.6147C21.395 32.0142 23.0918 31.539 24.8172 31.1932L27.9169 30.4748C28.2849 30.3667 28.6691 30.3219 29.0522 30.3424C29.3494 30.3664 29.6135 30.5405 29.7526 30.8037C29.8775 31.1365 29.6731 31.5598 29.1129 32.1534C28.7987 32.4862 27.9774 33.3594 28.3029 34.2896C28.5395 34.7764 28.954 35.1538 29.4612 35.3445C29.6241 35.4257 29.7819 35.5164 29.9343 35.6166C30.3506 35.9125 30.6172 36.3748 30.6648 36.883C30.7026 37.4551 30.542 38.0223 30.2104 38.4899C27.6942 39.3386 24.9944 39.4902 22.3987 38.9285L22.3985 38.9132ZM31.2511 38.0851V38.0853C31.3878 37.6779 31.4443 37.2478 31.4174 36.8189C31.3559 36.0842 30.9704 35.4149 30.3653 34.9926C30.1866 34.8753 30.001 34.7693 29.8091 34.6751C29.4305 34.4786 29.1166 34.2969 29.0105 34.0287C28.9046 33.7603 29.0976 33.2726 29.6575 32.679C29.9754 32.3462 30.8118 31.473 30.4639 30.5392C30.3506 30.2786 30.1695 30.0531 29.939 29.887C29.7085 29.7206 29.4374 29.6193 29.1544 29.594C28.6789 29.5552 28.2005 29.604 27.7424 29.7375L24.6463 30.4595V30.4598C22.8801 30.8203 21.144 31.3158 19.4535 31.9416L18.8669 32.1874C18.2082 32.4965 17.5162 32.7286 16.8041 32.8794C15.6913 33.0645 14.4235 32.8417 12.9248 32.2064C11.7013 30.2168 10.9721 27.9639 10.7976 25.6355C11.0397 25.7257 11.2963 25.7705 11.5545 25.7679C11.8576 25.7673 12.1578 25.7109 12.4402 25.6015C13.0704 25.3232 13.6373 24.9192 14.1056 24.4142L14.2041 24.3234H14.2039C14.5827 23.9165 15.0202 23.5686 15.5023 23.2912C16.2251 22.9131 17.0692 22.9131 17.9623 22.8867V22.8869C18.7387 22.9086 19.5142 22.8155 20.2634 22.6108C20.6792 22.5009 21.0449 22.253 21.3005 21.9077C21.4507 21.6941 21.5225 21.4352 21.504 21.1749C21.4853 20.9146 21.3773 20.6685 21.1983 20.4784L21.047 20.3387L20.8464 20.3917C17.7712 21.2287 14.4898 20.821 11.7134 19.2574C11.9362 18.6703 12.1965 18.0983 12.493 17.5448C13.7745 18.3589 15.2876 18.731 16.8008 18.6047C18.3141 18.4783 19.7443 17.8605 20.8727 16.8453C21.1832 16.5655 21.467 16.2556 21.7431 15.9569C22.0195 15.6581 22.2162 15.4426 22.466 15.2008L22.4662 15.2005C22.937 14.7084 23.5518 14.3775 24.2224 14.2553C24.5189 14.205 24.8238 14.248 25.095 14.378C25.3661 14.508 25.5902 14.7187 25.7362 14.9814C25.8479 15.3263 25.8814 15.6918 25.8347 16.0513C25.816 16.3195 25.816 16.5885 25.8347 16.8567C25.9353 17.7693 26.4797 18.5739 27.2897 19.0074C28.0996 19.4412 29.0717 19.4483 29.8883 19.0266C30.3054 18.7914 30.6877 18.4987 31.0238 18.1571C31.2459 17.9385 31.4837 17.7365 31.7353 17.5521C32.3439 17.1363 33.0905 16.9727 33.8176 17.0956C34.5447 17.2188 35.1958 17.6189 35.6332 18.2117C36.0709 18.8048 36.261 19.5443 36.1636 20.2743C36.0781 20.8149 35.8423 21.3207 35.483 21.734C35.1237 22.147 34.6551 22.4511 34.131 22.6109C33.1016 22.9134 32.0152 22.6109 30.8684 22.3197C29.7783 22.0322 28.6504 21.73 27.5112 21.9415L27.5114 21.9418C26.5808 22.1741 25.7035 22.5824 24.9262 23.1439C24.2288 23.6539 23.4399 24.026 22.6024 24.2404C22.0121 24.3179 21.4138 24.3179 20.8235 24.2404C20.376 24.1929 19.9259 24.174 19.476 24.1837C18.28 24.2367 16.8948 24.8681 16.6827 26.1458C16.631 26.5701 16.702 27 16.8871 27.3852C17.0722 27.7705 17.3639 28.0947 17.7275 28.3196C18.4091 28.7302 19.2075 28.9046 19.9985 28.8149C21.2666 28.7205 22.4398 28.2062 23.5753 27.7073C24.8735 27.1477 26.0959 26.626 27.4016 26.6978C28.2418 26.7916 29.0639 27.0055 29.843 27.3331C30.8609 27.7112 31.9094 28.0891 33.0375 27.9984C33.2569 27.9984 33.4689 27.9494 33.6772 27.9191H33.677C33.9513 27.8645 34.2301 27.8365 34.5096 27.8357C34.6928 27.8249 34.8758 27.8626 35.04 27.9449C35.2042 28.0272 35.3436 28.1514 35.4445 28.3046C35.6451 28.7395 35.2211 29.3292 34.6876 29.6847L34.309 29.9304C33.7791 30.2633 33.1735 30.6375 32.901 31.2878C32.4506 32.32 33.0903 33.5146 33.9608 34.0703V34.0701C34.6166 34.4514 35.3503 34.679 36.1069 34.7357C34.7299 36.1667 33.0782 37.3057 31.251 38.0853L31.2511 38.0851ZM36.7467 34.0474C35.9557 33.9681 35.0737 33.866 34.3962 33.4351C33.8019 33.0569 33.3365 32.2404 33.6393 31.5864C33.9097 31.1433 34.3046 30.7897 34.7749 30.5692C34.9111 30.4822 35.0473 30.3991 35.1761 30.3084C35.9634 29.7754 36.5765 28.849 36.1829 27.9908C36.0255 27.7057 35.7924 27.4697 35.5091 27.3088C35.2258 27.1479 34.9037 27.0685 34.5779 27.0796C34.253 27.0823 33.9287 27.1128 33.609 27.1703C33.416 27.2007 33.2304 27.2307 33.03 27.246C32.0648 27.3178 31.1376 26.9812 30.1497 26.6223V26.6221C29.3041 26.2697 28.4114 26.0416 27.5004 25.9454C26.0093 25.8547 24.6353 26.4596 23.3105 27.038C22.175 27.5333 21.1189 27.9982 19.9798 28.0853V28.0855C19.3567 28.1517 18.7289 28.0193 18.1858 27.7074C17.9466 27.5605 17.7531 27.35 17.6269 27.0997C17.5004 26.8495 17.4463 26.5689 17.4703 26.2896C17.6066 25.4692 18.6059 24.9966 19.5481 24.9588H19.5484C19.9665 24.9522 20.3847 24.9699 20.8011 25.0116C21.4593 25.0986 22.1261 25.0986 22.7843 25.0116C23.7163 24.78 24.5952 24.372 25.3733 23.8095C26.0689 23.3008 26.8549 22.9287 27.6897 22.713C28.6623 22.5315 29.6616 22.796 30.7176 23.0911C31.9176 23.4126 33.1549 23.7415 34.3927 23.3786V23.3783C35.2882 23.1149 36.0467 22.5144 36.5077 21.7034C36.9689 20.8922 37.0969 19.9341 36.8646 19.0308C36.6325 18.1273 36.0583 17.3493 35.2631 16.8604C34.6617 16.4965 33.9695 16.3105 33.2664 16.3245C32.5634 16.3388 31.8791 16.5521 31.2927 16.9398C31.0097 17.1463 30.7414 17.3723 30.4903 17.6165C30.2108 17.9118 29.891 18.1663 29.5404 18.3726C28.9456 18.6827 28.2356 18.6793 27.6443 18.3628C27.0526 18.0466 26.6558 17.4587 26.5842 16.7923C26.5692 16.5618 26.5692 16.3308 26.5842 16.1003C26.6444 15.6179 26.5885 15.128 26.4216 14.6712C26.2144 14.2619 25.8838 13.9275 25.4765 13.7152C25.0691 13.5029 24.6055 13.4235 24.1506 13.4879C23.3052 13.6305 22.5301 14.0462 21.944 14.6712C21.6753 14.9246 21.4255 15.1968 21.1871 15.4576C20.9487 15.7183 20.6536 16.0399 20.3695 16.297H20.3697C19.3591 17.2069 18.0765 17.7585 16.7203 17.8667C15.3641 17.9746 14.0102 17.6328 12.8681 16.8944C14.2676 14.5469 16.2926 12.634 18.7173 11.3691C21.1417 10.1043 23.8703 9.53726 26.5986 9.73136C29.3269 9.92546 31.9475 10.8727 34.1683 12.468C36.3892 14.0633 38.1224 16.2435 39.1748 18.7654C40.2274 21.2872 40.5577 24.0518 40.1289 26.7502C39.7001 29.4486 38.5293 31.9751 36.7469 34.0477L36.7467 34.0474Z" fill="white"/>
<path d="M25.5094 9.00013C22.1863 9.00198 18.9514 10.0695 16.2811 12.0453C13.6106 14.0214 11.6459 16.8013 10.6759 19.9761C9.70585 23.151 9.78168 26.5533 10.8923 29.6818C12.0031 32.8106 14.09 35.5003 16.8458 37.3553C16.8458 37.3553 16.8648 37.3553 16.8762 37.378C18.8552 38.7058 21.1152 39.5582 23.4788 39.8683C25.8425 40.1788 28.2463 39.9385 30.5018 39.1663C30.5268 39.1629 30.5511 39.1553 30.5738 39.1437C34.0363 37.9424 36.9616 35.5552 38.8309 32.4055C40.7001 29.2556 41.3926 25.5469 40.7859 21.9356C40.1795 18.3244 38.3127 15.0445 35.5165 12.6768C32.7204 10.3091 29.1753 9.00662 25.5096 9L25.5094 9.00013ZM11.4601 19.9872C14.2948 21.544 17.6137 21.9733 20.752 21.1896C20.7588 21.2927 20.7309 21.3953 20.6725 21.4807C20.5091 21.6833 20.2826 21.8257 20.0289 21.885C19.3469 22.068 18.6418 22.1495 17.936 22.1271C16.9975 22.1461 16.0436 22.1648 15.1465 22.6147C14.5971 22.9243 14.0978 23.3157 13.6667 23.7753L13.5722 23.8661L13.5719 23.8663C13.173 24.2954 12.6915 24.6398 12.1566 24.8796C11.6969 25.0811 11.1652 25.0265 10.756 24.7358V24.4901C10.7539 22.9615 10.9915 21.4422 11.4601 19.9873L11.4601 19.9872ZM21.6036 38.7167C20.5528 38.4327 19.5372 38.0321 18.5756 37.5221C19.1646 37.387 19.7299 37.1639 20.2524 36.8604C20.5098 36.7093 20.7632 36.5502 21.0093 36.3878C21.5743 35.9854 22.1987 35.6742 22.8603 35.4653C23.3424 35.3184 23.8625 35.3616 24.3137 35.5863C24.5035 35.6876 24.655 35.848 24.7451 36.0434C24.8354 36.2385 24.8591 36.4577 24.8132 36.6676C24.658 37.1629 24.0182 37.4237 23.4129 37.5977C22.7314 37.7982 21.9745 38.078 21.6036 38.7167L21.6036 38.7167ZM22.3985 38.9132V38.9135C22.761 38.6186 23.1874 38.4129 23.6436 38.3122C24.4386 38.0701 25.2823 37.7148 25.5361 36.8868V36.887C25.6322 36.5131 25.6023 36.1177 25.451 35.7625C25.3 35.4073 25.0358 35.1114 24.6997 34.921C24.0808 34.5847 23.3538 34.5088 22.6787 34.7092C21.9419 34.9402 21.2467 35.2873 20.6197 35.7377C20.3773 35.8928 20.1389 36.0478 19.8891 36.1876C19.3933 36.4751 18.1519 37.0837 17.2398 36.6979C15.8598 35.7638 14.6467 34.6047 13.6516 33.2687C14.6992 33.6453 15.8228 33.7619 16.9256 33.6089C17.6986 33.4465 18.4494 33.1928 19.1626 32.8529L19.7415 32.6147C21.395 32.0142 23.0918 31.539 24.8172 31.1932L27.9169 30.4748C28.2849 30.3667 28.6691 30.3219 29.0522 30.3424C29.3494 30.3664 29.6135 30.5405 29.7526 30.8037C29.8775 31.1365 29.6731 31.5598 29.1129 32.1534C28.7987 32.4862 27.9774 33.3594 28.3029 34.2896C28.5395 34.7764 28.954 35.1538 29.4612 35.3445C29.6241 35.4257 29.7819 35.5164 29.9343 35.6166C30.3506 35.9125 30.6172 36.3748 30.6648 36.883C30.7026 37.4551 30.542 38.0223 30.2104 38.4899C27.6942 39.3386 24.9944 39.4902 22.3987 38.9285L22.3985 38.9132ZM31.2511 38.0851V38.0853C31.3878 37.6779 31.4443 37.2478 31.4174 36.8189C31.3559 36.0842 30.9704 35.4149 30.3653 34.9926C30.1866 34.8753 30.001 34.7693 29.8091 34.6751C29.4305 34.4786 29.1166 34.2969 29.0105 34.0287C28.9046 33.7603 29.0976 33.2726 29.6575 32.679C29.9754 32.3462 30.8118 31.473 30.4639 30.5392C30.3506 30.2786 30.1695 30.0531 29.939 29.887C29.7085 29.7206 29.4374 29.6193 29.1544 29.594C28.6789 29.5552 28.2005 29.604 27.7424 29.7375L24.6463 30.4595V30.4598C22.8801 30.8203 21.144 31.3158 19.4535 31.9416L18.8669 32.1874C18.2082 32.4965 17.5162 32.7286 16.8041 32.8794C15.6913 33.0645 14.4235 32.8417 12.9248 32.2064C11.7013 30.2168 10.9721 27.9639 10.7976 25.6355C11.0397 25.7257 11.2963 25.7705 11.5545 25.7679C11.8576 25.7673 12.1578 25.7109 12.4402 25.6015C13.0704 25.3232 13.6373 24.9192 14.1056 24.4142L14.2041 24.3234H14.2039C14.5827 23.9165 15.0202 23.5686 15.5023 23.2912C16.2251 22.9131 17.0692 22.9131 17.9623 22.8867V22.8869C18.7387 22.9086 19.5142 22.8155 20.2634 22.6108C20.6792 22.5009 21.0449 22.253 21.3005 21.9077C21.4507 21.6941 21.5225 21.4352 21.504 21.1749C21.4853 20.9146 21.3773 20.6685 21.1983 20.4784L21.047 20.3387L20.8464 20.3917C17.7712 21.2287 14.4898 20.821 11.7134 19.2574C11.9362 18.6703 12.1965 18.0983 12.493 17.5448C13.7745 18.3589 15.2876 18.731 16.8008 18.6047C18.3141 18.4783 19.7443 17.8605 20.8727 16.8453C21.1832 16.5655 21.467 16.2556 21.7431 15.9569C22.0195 15.6581 22.2162 15.4426 22.466 15.2008L22.4662 15.2005C22.937 14.7084 23.5518 14.3775 24.2224 14.2553C24.5189 14.205 24.8238 14.248 25.095 14.378C25.3661 14.508 25.5902 14.7187 25.7362 14.9814C25.8479 15.3263 25.8814 15.6918 25.8347 16.0513C25.816 16.3195 25.816 16.5885 25.8347 16.8567C25.9353 17.7693 26.4797 18.5739 27.2897 19.0074C28.0996 19.4412 29.0717 19.4483 29.8883 19.0266C30.3054 18.7914 30.6877 18.4987 31.0238 18.1571C31.2459 17.9385 31.4837 17.7365 31.7353 17.5521C32.3439 17.1363 33.0905 16.9727 33.8176 17.0956C34.5447 17.2188 35.1958 17.6189 35.6332 18.2117C36.0709 18.8048 36.261 19.5443 36.1636 20.2743C36.0781 20.8149 35.8423 21.3207 35.483 21.734C35.1237 22.147 34.6551 22.4511 34.131 22.6109C33.1016 22.9134 32.0152 22.6109 30.8684 22.3197C29.7783 22.0322 28.6504 21.73 27.5112 21.9415L27.5114 21.9418C26.5808 22.1741 25.7035 22.5824 24.9262 23.1439C24.2288 23.6539 23.4399 24.026 22.6024 24.2404C22.0121 24.3179 21.4138 24.3179 20.8235 24.2404C20.376 24.1929 19.9259 24.174 19.476 24.1837C18.28 24.2367 16.8948 24.8681 16.6827 26.1458C16.631 26.5701 16.702 27 16.8871 27.3852C17.0722 27.7705 17.3639 28.0947 17.7275 28.3196C18.4091 28.7302 19.2075 28.9046 19.9985 28.8149C21.2666 28.7205 22.4398 28.2062 23.5753 27.7073C24.8735 27.1477 26.0959 26.626 27.4016 26.6978C28.2418 26.7916 29.0639 27.0055 29.843 27.3331C30.8609 27.7112 31.9094 28.0891 33.0375 27.9984C33.2569 27.9984 33.4689 27.9494 33.6772 27.9191H33.677C33.9513 27.8645 34.2301 27.8365 34.5096 27.8357C34.6928 27.8249 34.8758 27.8626 35.04 27.9449C35.2042 28.0272 35.3436 28.1514 35.4445 28.3046C35.6451 28.7395 35.2211 29.3292 34.6876 29.6847L34.309 29.9304C33.7791 30.2633 33.1735 30.6375 32.901 31.2878C32.4506 32.32 33.0903 33.5146 33.9608 34.0703V34.0701C34.6166 34.4514 35.3503 34.679 36.1069 34.7357C34.7299 36.1667 33.0782 37.3057 31.251 38.0853L31.2511 38.0851ZM36.7467 34.0474C35.9557 33.9681 35.0737 33.866 34.3962 33.4351C33.8019 33.0569 33.3365 32.2404 33.6393 31.5864C33.9097 31.1433 34.3046 30.7897 34.7749 30.5692C34.9111 30.4822 35.0473 30.3991 35.1761 30.3084C35.9634 29.7754 36.5765 28.849 36.1829 27.9908C36.0255 27.7057 35.7924 27.4697 35.5091 27.3088C35.2258 27.1479 34.9037 27.0685 34.5779 27.0796C34.253 27.0823 33.9287 27.1128 33.609 27.1703C33.416 27.2007 33.2304 27.2307 33.03 27.246C32.0648 27.3178 31.1376 26.9812 30.1497 26.6223V26.6221C29.3041 26.2697 28.4114 26.0416 27.5004 25.9454C26.0093 25.8547 24.6353 26.4596 23.3105 27.038C22.175 27.5333 21.1189 27.9982 19.9798 28.0853V28.0855C19.3567 28.1517 18.7289 28.0193 18.1858 27.7074C17.9466 27.5605 17.7531 27.35 17.6269 27.0997C17.5004 26.8495 17.4463 26.5689 17.4703 26.2896C17.6066 25.4692 18.6059 24.9966 19.5481 24.9588H19.5484C19.9665 24.9522 20.3847 24.9699 20.8011 25.0116C21.4593 25.0986 22.1261 25.0986 22.7843 25.0116C23.7163 24.78 24.5952 24.372 25.3733 23.8095C26.0689 23.3008 26.8549 22.9287 27.6897 22.713C28.6623 22.5315 29.6616 22.796 30.7176 23.0911C31.9176 23.4126 33.1549 23.7415 34.3927 23.3786V23.3783C35.2882 23.1149 36.0467 22.5144 36.5077 21.7034C36.9689 20.8922 37.0969 19.9341 36.8646 19.0308C36.6325 18.1273 36.0583 17.3493 35.2631 16.8604C34.6617 16.4965 33.9695 16.3105 33.2664 16.3245C32.5634 16.3388 31.8791 16.5521 31.2927 16.9398C31.0097 17.1463 30.7414 17.3723 30.4903 17.6165C30.2108 17.9118 29.891 18.1663 29.5404 18.3726C28.9456 18.6827 28.2356 18.6793 27.6443 18.3628C27.0526 18.0466 26.6558 17.4587 26.5842 16.7923C26.5692 16.5618 26.5692 16.3308 26.5842 16.1003C26.6444 15.6179 26.5885 15.128 26.4216 14.6712C26.2144 14.2619 25.8838 13.9275 25.4765 13.7152C25.0691 13.5029 24.6055 13.4235 24.1506 13.4879C23.3052 13.6305 22.5301 14.0462 21.944 14.6712C21.6753 14.9246 21.4255 15.1968 21.1871 15.4576C20.9487 15.7183 20.6536 16.0399 20.3695 16.297H20.3697C19.3591 17.2069 18.0765 17.7585 16.7203 17.8667C15.3641 17.9746 14.0102 17.6328 12.8681 16.8944C14.2676 14.5469 16.2926 12.634 18.7173 11.3691C21.1417 10.1043 23.8703 9.53726 26.5986 9.73136C29.3269 9.92546 31.9475 10.8727 34.1683 12.468C36.3892 14.0633 38.1224 16.2435 39.1748 18.7654C40.2274 21.2872 40.5577 24.0518 40.1289 26.7502C39.7001 29.4486 38.5293 31.9751 36.7469 34.0477L36.7467 34.0474Z" stroke="white" stroke-width="0.6" mask="url(#path-2-outside-1_4875_38)"/>
</svg>
