<svg width="50" height="50" viewBox="0 0 50 50" fill="none" xmlns="http://www.w3.org/2000/svg">
<circle cx="25" cy="25" r="25" fill="#4B7DBE"/>
<path d="M34.6082 24.1308L34.6043 24.0488V23.4828C34.6043 22.3432 33.6755 21.4144 32.5359 21.4144C31.9231 21.4144 31.3767 21.6877 30.9984 22.1129C30.651 21.4612 29.968 21.0085 29.1796 21.0085C28.5668 21.0085 28.0204 21.2818 27.642 21.707C27.2947 21.0552 26.6117 20.6025 25.8232 20.6025C25.3354 20.6025 24.8906 20.7819 24.5354 21.0669V15.2597C24.5354 14.1398 23.5246 13.2302 22.2835 13.2302C21.0424 13.2302 20.0316 14.1395 20.0316 15.2597V24.8562H19.415C18.7165 24.8562 17.7797 25.2074 17.2919 26.8857C17.2881 26.9012 17.284 26.917 17.2802 26.9287C17.2372 27.1786 16.2966 33.1067 20.7457 36.5293C20.8941 36.6426 21.0463 36.7321 21.1829 36.8103C21.5341 37.0131 21.6239 37.0874 21.6239 37.2475V40.9357C21.6239 41.1502 21.7995 41.326 22.0143 41.326H31.1229C31.3375 41.326 31.5133 41.1505 31.5133 40.9357V37.2475C31.5133 37.1187 31.568 37.064 31.8879 36.8767C32.0556 36.7792 32.247 36.666 32.4188 36.5021C35.1231 33.9143 34.7874 27.5489 34.608 24.1305L34.6082 24.1308ZM30.725 40.5493H22.3969V39.0545H30.725V40.5493ZM31.8722 35.9401C31.7669 36.0417 31.6302 36.1236 31.4859 36.2056C31.1658 36.3929 30.7247 36.6504 30.7247 37.2477V38.2702L22.3967 38.2699V37.2474C22.3967 36.6153 21.9167 36.3381 21.5652 36.135C21.4403 36.061 21.3194 35.9946 21.2141 35.9126C17.2645 32.8723 17.9827 27.4591 18.0371 27.0807C18.4664 25.6367 19.1729 25.6367 19.4032 25.6367H20.0198V27.8652C20.0198 28.0798 20.1954 28.2556 20.4102 28.2556C20.6247 28.2556 20.8006 28.08 20.8006 27.8652V15.2595C20.8006 14.5688 21.4602 14.0105 22.272 14.0105C23.0837 14.0105 23.7433 14.5724 23.7433 15.2595V22.2259C23.7433 22.2806 23.7551 22.3274 23.7747 22.3743C23.7591 22.4717 23.7433 22.5695 23.7433 22.671V23.2487C23.7433 23.4632 23.9189 23.6391 24.1337 23.6391C24.3482 23.6391 24.5241 23.4635 24.5241 23.2487V22.671C24.5241 21.9608 25.1018 21.3831 25.812 21.3831C26.5222 21.3831 27.0999 21.9608 27.0999 22.671V23.6545C27.0999 23.8691 27.2755 24.0449 27.4903 24.0449C27.7048 24.0449 27.8807 23.8693 27.8807 23.6545L27.8798 23.2519V23.0801C27.8798 22.3699 28.4575 21.7923 29.1677 21.7923C29.878 21.7923 30.4556 22.3699 30.4556 23.0801V24.0637C30.4556 24.2782 30.6312 24.4541 30.846 24.4541C31.0605 24.4541 31.2364 24.2785 31.2364 24.0637V23.486C31.2364 22.7758 31.8141 22.1981 32.5243 22.1981C33.2345 22.1981 33.8122 22.7758 33.8122 23.486V24.0637C33.8122 24.0675 33.8122 24.0716 33.816 24.0716V24.0833L33.8198 24.1731C33.9913 27.229 34.3229 33.5982 31.872 35.9398L31.8722 35.9401Z" fill="white"/>
<path d="M22.2755 12.4775C22.4901 12.4775 22.6659 12.3019 22.6659 12.0871V9.39038C22.6659 9.17587 22.4903 9 22.2755 9C22.061 9 21.8852 9.17559 21.8852 9.39038V12.0871C21.8854 12.3019 22.061 12.4775 22.2755 12.4775Z" fill="white"/>
<path d="M20.3437 12.7077C20.4178 12.8327 20.5466 12.9029 20.6832 12.9029C20.7496 12.9029 20.8158 12.8874 20.8784 12.8523C21.0657 12.7431 21.1283 12.5049 21.0227 12.3176L19.6763 9.98378C19.5671 9.79649 19.3289 9.73388 19.1416 9.8395C18.9543 9.94867 18.8917 10.1869 18.9973 10.3742L20.3437 12.7077Z" fill="white"/>
<path d="M16.984 12.6722L19.3178 14.0186C19.3801 14.0537 19.4466 14.0692 19.513 14.0692C19.6496 14.0692 19.7784 13.999 19.8524 13.874C19.9616 13.6867 19.8955 13.4485 19.7082 13.3394L17.3743 11.9929C17.1871 11.8838 16.9488 11.9499 16.8397 12.1372C16.7341 12.3251 16.7964 12.563 16.984 12.6721V12.6722Z" fill="white"/>
<path d="M19.4775 15.2759C19.4775 15.0614 19.3019 14.8855 19.0871 14.8855H16.3904C16.1759 14.8855 16 15.0611 16 15.2759C16 15.4904 16.1756 15.6663 16.3904 15.6663H19.0871C19.3019 15.666 19.4775 15.4942 19.4775 15.2759Z" fill="white"/>
<path d="M25.0778 15.2759C25.0778 15.4904 25.2534 15.6663 25.4682 15.6663H28.1649C28.3794 15.6663 28.5553 15.4907 28.5553 15.2759C28.5553 15.0614 28.3797 14.8855 28.1649 14.8855H25.4682C25.2537 14.8855 25.0778 15.0611 25.0778 15.2759Z" fill="white"/>
<path d="M24.7037 13.8787C24.7777 14.0037 24.9065 14.0739 25.0431 14.0739C25.1096 14.0739 25.1757 14.0584 25.2383 14.0233L27.5721 12.673C27.7594 12.5638 27.8221 12.3256 27.7164 12.1383C27.6073 11.951 27.3691 11.8884 27.1818 11.994L24.8479 13.3443C24.6568 13.4535 24.5945 13.6914 24.7037 13.8787V13.8787Z" fill="white"/>
<path d="M23.6771 12.8522C23.7394 12.8873 23.8058 12.9028 23.8722 12.9028C24.0089 12.9028 24.1377 12.8326 24.2117 12.7076L25.5582 10.3738C25.6673 10.1865 25.6012 9.94829 25.4139 9.83912C25.2266 9.72996 24.9884 9.79611 24.8792 9.9834L23.5328 12.3172C23.4271 12.5048 23.4898 12.743 23.6771 12.8522V12.8522Z" fill="white"/>
</svg>
