<svg width="61" height="61" viewBox="0 0 61 61" fill="none" xmlns="http://www.w3.org/2000/svg">
<circle cx="30.848" cy="30.5413" r="29.9085" fill="#4B7DBE"/>
<path d="M51.4928 24.8967L30.4748 16.6782C30.154 16.5519 29.7975 16.5519 29.4767 16.6782L8.45864 24.8967C7.93314 25.1027 7.58621 25.6091 7.58621 26.1741C7.58621 26.7391 7.93187 27.2455 8.45864 27.4515L14.4336 29.7875V37.6585C14.4336 42.303 21.1158 45.8043 29.9771 45.8043C38.8377 45.8043 45.5206 42.3025 45.5206 37.6585V29.7875L48.0345 28.8048V36.221C48.0345 36.978 48.6486 37.5922 49.4056 37.5922C50.1626 37.5922 50.7767 36.978 50.7767 36.221V27.7315L51.4935 27.4509C52.019 27.2449 52.3659 26.7386 52.3659 26.1735C52.3653 25.6085 52.0177 25.1028 51.4922 24.8968L51.4928 24.8967ZM42.7762 37.6584C42.7762 40.2144 37.5194 43.062 29.9757 43.062C22.4319 43.062 17.1751 40.215 17.1751 37.6584V30.859L29.4776 35.6701C29.6383 35.7319 29.8079 35.7644 29.9769 35.7644C30.1459 35.7644 30.3162 35.7332 30.4763 35.6701L42.7769 30.8603L42.7762 37.6584ZM29.9763 32.9206L12.723 26.174L29.9747 19.4282L47.2264 26.1747L29.9763 32.9206Z" fill="white"/>
</svg>
