<svg width="27" height="27" viewBox="0 0 27 27" fill="none" xmlns="http://www.w3.org/2000/svg">
<path d="M2.84067 3.7124H16.9875V4.69688H2.84067V3.7124Z" fill="white"/>
<path d="M2.84067 6.41284H16.9875V7.39732H2.84067V6.41284Z" fill="white"/>
<path d="M2.84067 9.16846H9.90004V10.1529H2.84067V9.16846Z" fill="white"/>
<path d="M2.84067 11.897H7.95942V12.8814H2.84067V11.897Z" fill="white"/>
<path d="M26.297 18.5625H18.2814C18.0844 18.5625 17.9157 18.6749 17.8033 18.8438L14.0344 25.3969C13.95 25.5376 13.95 25.6783 13.9781 25.8187C14.0061 25.875 14.0344 25.9311 14.0625 25.9874L0.984325 26.0157V0.98445H18.8156V8.6907C18.5625 8.66265 18.2811 8.66265 18.0281 8.66265C16.5938 8.66265 15.1875 9.00009 13.9217 9.67515C13.7811 9.73145 13.6967 9.87212 13.6404 10.0126C13.6123 10.1533 13.6123 10.2939 13.6967 10.4344L17.803 17.3531C17.8874 17.5219 18.0844 17.6062 18.2531 17.6062H26.325C26.4656 17.6062 26.6063 17.5499 26.7187 17.4375C26.8311 17.3251 26.8594 17.1844 26.8594 17.0438C26.6344 12.9374 23.6814 9.61875 19.8 8.83125V0H0V27H18.0281C22.5282 27 26.2969 23.6251 26.8313 19.1813C26.8593 19.0406 26.8032 18.8719 26.6906 18.7595C26.578 18.6468 26.4373 18.5625 26.2966 18.5625L26.297 18.5625ZM25.7346 16.5094H18.5627L14.9064 10.35C15.8909 9.92824 16.9314 9.70321 18.0002 9.70321C21.9659 9.73126 25.2565 12.6562 25.7346 16.5095L25.7346 16.5094ZM18.0283 25.9313C17.0721 25.9313 16.1439 25.7626 15.2721 25.4251L18.5908 19.6595H25.6501C24.9472 23.2595 21.769 25.9314 18.0283 25.9314L18.0283 25.9313Z" fill="white"/>
<path d="M12.6282 25.0872C12.5158 25.0872 12.4032 25.0591 12.3188 25.0028C9.95636 23.3154 8.52203 20.6153 8.52203 17.7184C8.52203 14.934 9.78761 12.3747 12.0096 10.6872C12.122 10.6028 12.2909 10.5465 12.4314 10.5748C12.572 10.6028 12.7127 10.6872 12.7971 10.8278L16.8751 17.6903C16.9876 17.8591 16.9876 18.056 16.8751 18.2248L13.1062 24.806C13.0219 24.9467 12.9093 25.031 12.7688 25.0591C12.7125 25.0871 12.6564 25.0871 12.6281 25.0871L12.6282 25.0872ZM12.2064 11.9246C10.5471 13.3872 9.59067 15.4683 9.59067 17.7184C9.59067 20.0528 10.6595 22.2746 12.4595 23.7372L15.7781 17.9715L12.2064 11.9246Z" fill="white"/>
</svg>
