<svg width="50" height="50" viewBox="0 0 50 50" fill="none" xmlns="http://www.w3.org/2000/svg">
<circle cx="25" cy="25" r="25" fill="#4B7DBE"/>
<path d="M25 12C21.5523 12 18.2454 13.3697 15.8076 15.8076C13.3697 18.2457 12 21.5523 12 25C12 28.4477 13.3697 31.7546 15.8076 34.1924C18.2457 36.6303 21.5523 38 25 38C28.4477 38 31.7546 36.6303 34.1924 34.1924C36.6303 31.7543 38 28.4477 38 25C38 21.5523 36.6303 18.2454 34.1924 15.8076C31.7543 13.3697 28.4477 12 25 12ZM25 35.6366C22.1791 35.6366 19.4736 34.516 17.4791 32.5212C15.4843 30.5265 14.3637 27.8211 14.3637 25.0003C14.3637 22.1795 15.4843 19.4739 17.4791 17.4794C19.4738 15.4846 22.1792 14.364 25 14.364C27.8208 14.364 30.5264 15.4846 32.5209 17.4794C34.5157 19.4741 35.6363 22.1795 35.6363 25.0003C35.6363 27.8211 34.5157 30.5267 32.5209 32.5212C30.5262 34.516 27.8208 35.6366 25 35.6366Z" fill="white"/>
<path d="M25 22.6362C24.6866 22.6362 24.3859 22.7609 24.1643 22.9825C23.9427 23.2041 23.8182 23.5046 23.8182 23.8182V30.9091C23.8182 31.3313 24.0434 31.7215 24.409 31.9326C24.7746 32.1437 25.2253 32.1437 25.591 31.9326C25.9566 31.7215 26.1817 31.3313 26.1817 30.9091V23.8182C26.1817 23.5046 26.0573 23.2041 25.8357 22.9825C25.6141 22.7609 25.3134 22.6362 25 22.6362Z" fill="white"/>
<path d="M25 17.9092C24.6866 17.9092 24.3859 18.0336 24.1643 18.2554C23.9427 18.477 23.8182 18.7776 23.8182 19.0909V20.2729C23.8182 20.6951 24.0434 21.0853 24.409 21.2964C24.7746 21.5075 25.2253 21.5075 25.591 21.2964C25.9566 21.0853 26.1817 20.6951 26.1817 20.2729V19.0909C26.1817 18.7775 26.0573 18.477 25.8357 18.2554C25.6141 18.0336 25.3134 17.9092 25 17.9092Z" fill="white"/>
</svg>
