<svg width="50" height="50" viewBox="0 0 50 50" fill="none" xmlns="http://www.w3.org/2000/svg">
<circle cx="25" cy="25" r="25" fill="#4B7DBE"/>
<path d="M14.8407 15.7124H28.9875V16.6969H14.8407V15.7124Z" fill="white"/>
<path d="M14.8407 18.4128H28.9875V19.3973H14.8407V18.4128Z" fill="white"/>
<path d="M14.8407 21.1685H21.9V22.1529H14.8407V21.1685Z" fill="white"/>
<path d="M14.8407 23.897H19.9594V24.8814H14.8407V23.897Z" fill="white"/>
<path d="M38.297 30.5625H30.2814C30.0844 30.5625 29.9157 30.6749 29.8033 30.8438L26.0344 37.3969C25.95 37.5376 25.95 37.6783 25.9781 37.8187C26.0061 37.875 26.0344 37.9311 26.0625 37.9874L12.9843 38.0157V12.9844H30.8156V20.6907C30.5625 20.6626 30.2811 20.6626 30.0281 20.6626C28.5937 20.6626 27.1875 21.0001 25.9217 21.6751C25.7811 21.7315 25.6967 21.8721 25.6404 22.0126C25.6123 22.1533 25.6123 22.2939 25.6967 22.4344L29.803 29.3531C29.8874 29.5219 30.0844 29.6062 30.2531 29.6062H38.325C38.4656 29.6062 38.6063 29.5499 38.7187 29.4375C38.8311 29.3251 38.8594 29.1844 38.8594 29.0438C38.6344 24.9374 35.6814 21.6188 31.8 20.8313V12H12V39H30.0281C34.5282 39 38.2969 35.6251 38.8313 31.1813C38.8593 31.0406 38.8032 30.8719 38.6906 30.7595C38.578 30.6468 38.4373 30.5625 38.2966 30.5625L38.297 30.5625ZM37.7346 28.5094H30.5627L26.9064 22.35C27.8909 21.9282 28.9314 21.7032 30.0002 21.7032C33.9659 21.7313 37.2565 24.6562 37.7346 28.5095L37.7346 28.5094ZM30.0283 37.9313C29.0721 37.9313 28.1439 37.7626 27.2721 37.4251L30.5908 31.6595H37.6501C36.9472 35.2595 33.769 37.9314 30.0283 37.9314L30.0283 37.9313Z" fill="white"/>
<path d="M24.6282 37.0872C24.5158 37.0872 24.4032 37.0591 24.3188 37.0028C21.9564 35.3154 20.522 32.6153 20.522 29.7184C20.522 26.934 21.7876 24.3747 24.0096 22.6872C24.122 22.6028 24.2909 22.5465 24.4314 22.5748C24.572 22.6028 24.7127 22.6872 24.7971 22.8278L28.8751 29.6903C28.9876 29.8591 28.9876 30.056 28.8751 30.2248L25.1062 36.806C25.0219 36.9467 24.9093 37.031 24.7688 37.0591C24.7125 37.0871 24.6564 37.0871 24.6281 37.0871L24.6282 37.0872ZM24.2064 23.9246C22.5471 25.3872 21.5907 27.4683 21.5907 29.7184C21.5907 32.0528 22.6595 34.2746 24.4595 35.7372L27.7781 29.9715L24.2064 23.9246Z" fill="white"/>
</svg>
