<svg width="50" height="50" viewBox="0 0 50 50" fill="none" xmlns="http://www.w3.org/2000/svg">
<circle cx="25" cy="25" r="25" fill="#4B7DBE"/>
<path d="M25.1515 22.6724C27.2671 22.6724 28.9875 20.9513 28.9875 18.8362C28.9875 16.7211 27.2666 15 25.1515 15C23.0364 14.9998 21.3151 16.7207 21.3151 18.8362C21.3151 20.9515 23.0362 22.6724 25.1515 22.6724Z" fill="white"/>
<path d="M28.6961 22.8325C27.7511 23.6716 26.5117 24.186 25.1516 24.186C23.7911 24.186 22.5517 23.6716 21.6067 22.8325C20.1488 23.3586 19.1016 24.7524 19.1016 26.3895V34.6941H31.2007L31.2009 26.3895C31.2011 24.7524 30.1543 23.3585 28.696 22.8325H28.6961Z" fill="white"/>
<path d="M16.4309 22.8013C18.2823 22.8013 19.7911 21.321 19.8446 19.4823C19.8187 19.2699 19.8016 19.0552 19.8016 18.836V18.8354C19.5384 17.2101 18.1292 15.9639 16.4307 15.9639C14.5455 15.9639 13.0119 17.4976 13.0119 19.3827C13.0121 21.2679 14.5459 22.8012 16.4309 22.8012L16.4309 22.8013Z" fill="white"/>
<path d="M13.2928 23.1851C11.9459 23.7651 11 25.1047 11 26.6618V32.9727H17.5884V26.3894C17.5884 25.5264 17.8001 24.7139 18.1673 23.9933C17.6261 24.1977 17.0426 24.3151 16.4308 24.3151C15.2399 24.3149 14.1461 23.8902 13.2928 23.1851V23.1851Z" fill="white"/>
<path d="M30.4584 19.4805C30.5108 21.3203 32.0201 22.8015 33.8717 22.8015C35.7569 22.8015 37.2905 21.2677 37.2905 19.3827C37.2905 17.4977 35.7567 15.9639 33.8717 15.9639C32.1725 15.9639 30.7626 17.2118 30.5007 18.8386C30.5012 19.056 30.4843 19.2694 30.4584 19.4805H30.4584Z" fill="white"/>
<path d="M37.0102 23.1854C36.1571 23.8908 35.0633 24.3149 33.8724 24.3149C33.2608 24.3149 32.6771 24.1975 32.1359 23.993C32.5031 24.7134 32.7149 25.5264 32.7149 26.3894L32.7146 32.9727H39.303V26.6618C39.303 25.1047 38.3571 23.7651 37.0102 23.1851L37.0102 23.1854Z" fill="white"/>
</svg>
