<svg width="50" height="50" viewBox="0 0 50 50" fill="none" xmlns="http://www.w3.org/2000/svg">
<circle cx="25" cy="25" r="25" fill="#4B7DBE"/>
<path d="M32.9904 21.5919C32.8829 21.5793 32.7745 21.5731 32.6662 21.5727H29.9418L30.3382 17.3948C30.3378 16.4956 29.981 15.6332 29.3455 14.9967C28.7102 14.3605 27.8484 14.0021 26.9491 14.0002C26.1397 13.9918 25.3531 14.2695 24.7283 14.7839C24.1032 15.2985 23.6798 16.0171 23.5328 16.8131C23.4535 17.4064 23.2969 17.9866 23.0668 18.5391C22.5913 19.6288 21.7415 21.1546 20.1966 21.5972C19.7681 21.6614 19.3346 21.6884 18.9013 21.6776C17.8823 21.6776 16.7217 21.5972 16.7217 21.5972C15.9986 21.6 15.3061 21.8895 14.7961 22.402C14.2858 22.9143 13.9996 23.6082 14 24.3311V33.0604C14 33.7829 14.2871 34.476 14.798 34.9868C15.309 35.4979 16.0019 35.7848 16.7244 35.7848H31.6663C32.3387 35.7854 32.9877 35.5387 33.4899 35.0919C33.9922 34.6451 34.3128 34.0292 34.3907 33.3614L35.3892 24.6433C35.4783 23.92 35.2752 23.1912 34.8247 22.6185C34.3743 22.0457 33.7142 21.6761 32.9903 21.592L32.9904 21.5919ZM19.0254 33.7534H16.7246C16.5454 33.7489 16.3747 33.6757 16.248 33.5489C16.1212 33.4222 16.048 33.2515 16.0435 33.0723V24.3421C16.0473 24.1678 16.1159 24.0013 16.2362 23.8753C16.3565 23.7493 16.5195 23.6727 16.6932 23.661C17.0051 23.6815 17.9969 23.7387 18.9218 23.7387H19.0241L19.0254 33.7534ZM33.3383 24.417L32.3535 33.1351C32.3337 33.3029 32.2537 33.4576 32.1285 33.5708C32.0033 33.6841 31.8412 33.748 31.6724 33.7508H21.0633V23.4978C23.5151 22.6341 24.59 20.208 24.9496 19.388H24.9498C25.2517 18.6752 25.4596 17.926 25.5682 17.1594C25.6326 16.8399 25.8063 16.5527 26.0592 16.3472C26.3124 16.1415 26.629 16.0305 26.9549 16.0328C27.2977 16.0372 27.6265 16.1708 27.8751 16.407C28.1238 16.643 28.2743 16.9642 28.2966 17.3065L27.926 21.4149L27.7259 23.638H32.6595C32.8448 23.6433 33.0202 23.7216 33.1477 23.856C33.2754 23.9901 33.3448 24.1693 33.3406 24.3544C33.3421 24.375 33.3406 24.3953 33.3379 24.4171L33.3383 24.417Z" fill="white"/>
</svg>
