<svg width="50" height="50" viewBox="0 0 50 50" fill="none" xmlns="http://www.w3.org/2000/svg">
<circle cx="25" cy="25" r="25" fill="#4B7DBE"/>
<path d="M37.1693 14.0003H13.8302C13.3716 14.0003 13 14.3983 13 14.8894V25.6126V25.6123C13 29.163 14.3169 32.5682 16.661 35.0788C19.0053 37.5895 22.1848 39 25.5 39C28.8152 39 31.9948 37.5896 34.339 35.0788C36.6831 32.5681 38 29.1631 38 25.6123V14.8891C38 14.398 37.6284 14 37.1698 14L37.1693 14.0003ZM36.3391 25.6122V25.6119C36.3391 28.6908 35.1971 31.6438 33.1644 33.8211C31.1316 35.9985 28.3744 37.2215 25.4994 37.2215C22.6243 37.2215 19.8674 35.9984 17.8344 33.8211C15.8016 31.6441 14.6596 28.6911 14.6596 25.6119V15.7783H36.339L36.3391 25.6122ZM20.3 24.8046C19.9759 24.4574 19.9756 23.8945 20.2998 23.5471C20.624 23.1999 21.1498 23.1997 21.4739 23.5468L25.4526 27.8081L29.4289 23.5468C29.7533 23.1994 30.2791 23.1994 30.6033 23.5468C30.9277 23.8943 30.9277 24.4574 30.6033 24.8046L26.0372 29.6943C25.8815 29.8613 25.6702 29.955 25.4501 29.955C25.2297 29.955 25.0184 29.8613 24.8628 29.6943L20.3 24.8046Z" fill="white"/>
</svg>
