<svg width="50" height="50" viewBox="0 0 50 50" fill="none" xmlns="http://www.w3.org/2000/svg">
<circle cx="25" cy="25" r="25" fill="#4B7DBE"/>
<path d="M34.6082 24.1309L34.6043 24.0489V23.483C34.6043 22.3434 33.6755 21.4145 32.5359 21.4145C31.9231 21.4145 31.3767 21.6878 30.9984 22.113C30.651 21.4613 29.968 21.0086 29.1796 21.0086C28.5668 21.0086 28.0204 21.2819 27.642 21.7071C27.2947 21.0554 26.6117 20.6026 25.8232 20.6026C25.3354 20.6026 24.8906 20.782 24.5354 21.0671V15.2598C24.5354 14.1399 23.5246 13.2303 22.2835 13.2303C21.0424 13.2303 20.0316 14.1396 20.0316 15.2598V24.8563H19.415C18.7165 24.8563 17.7797 25.2075 17.2919 26.8858C17.2881 26.9013 17.284 26.9171 17.2802 26.9288C17.2372 27.1787 16.2966 33.1068 20.7457 36.5295C20.8941 36.6427 21.0463 36.7323 21.1829 36.8104C21.5341 37.0132 21.6239 37.0875 21.6239 37.2476V40.9358C21.6239 41.1503 21.7995 41.3262 22.0143 41.3262H31.1229C31.3375 41.3262 31.5133 41.1506 31.5133 40.9358V37.2476C31.5133 37.1188 31.568 37.0641 31.8879 36.8768C32.0556 36.7794 32.247 36.6661 32.4188 36.5022C35.1231 33.9144 34.7874 27.549 34.608 24.1306L34.6082 24.1309ZM30.725 40.5494H22.3969V39.0546H30.725V40.5494ZM31.8722 35.9403C31.7669 36.0418 31.6302 36.1237 31.4859 36.2057C31.1658 36.393 30.7247 36.6505 30.7247 37.2478V38.2703L22.3967 38.27V37.2475C22.3967 36.6154 21.9167 36.3382 21.5652 36.1352C21.4403 36.0611 21.3194 35.9947 21.2141 35.9127C17.2645 32.8725 17.9827 27.4592 18.0371 27.0808C18.4664 25.6368 19.1729 25.6368 19.4032 25.6368H20.0198V27.8654C20.0198 28.0799 20.1954 28.2557 20.4102 28.2557C20.6247 28.2557 20.8006 28.0802 20.8006 27.8654V15.2596C20.8006 14.569 21.4602 14.0106 22.272 14.0106C23.0837 14.0106 23.7433 14.5725 23.7433 15.2596V22.226C23.7433 22.2807 23.7551 22.3276 23.7747 22.3744C23.7591 22.4718 23.7433 22.5696 23.7433 22.6711V23.2488C23.7433 23.4633 23.9189 23.6392 24.1337 23.6392C24.3482 23.6392 24.5241 23.4636 24.5241 23.2488V22.6711C24.5241 21.9609 25.1018 21.3832 25.812 21.3832C26.5222 21.3832 27.0999 21.9609 27.0999 22.6711V23.6547C27.0999 23.8692 27.2755 24.0451 27.4903 24.0451C27.7048 24.0451 27.8807 23.8695 27.8807 23.6547L27.8798 23.252V23.0803C27.8798 22.37 28.4575 21.7924 29.1677 21.7924C29.878 21.7924 30.4556 22.3701 30.4556 23.0803V24.0638C30.4556 24.2783 30.6312 24.4542 30.846 24.4542C31.0605 24.4542 31.2364 24.2786 31.2364 24.0638V23.4861C31.2364 22.7759 31.8141 22.1983 32.5243 22.1983C33.2345 22.1983 33.8122 22.7759 33.8122 23.4861V24.0638C33.8122 24.0676 33.8122 24.0717 33.816 24.0717V24.0834L33.8198 24.1733C33.9913 27.2291 34.3229 33.5983 31.872 35.9399L31.8722 35.9403Z" fill="white"/>
<path d="M22.2755 12.4775C22.4901 12.4775 22.6659 12.3019 22.6659 12.0871V9.39038C22.6659 9.17587 22.4903 9 22.2755 9C22.061 9 21.8852 9.17559 21.8852 9.39038V12.0871C21.8854 12.3019 22.061 12.4775 22.2755 12.4775Z" fill="white"/>
<path d="M20.3437 12.7078C20.4178 12.8328 20.5466 12.903 20.6832 12.903C20.7496 12.903 20.8158 12.8875 20.8784 12.8524C21.0657 12.7432 21.1283 12.505 21.0227 12.3177L19.6763 9.98391C19.5671 9.79661 19.3289 9.734 19.1416 9.83962C18.9543 9.94879 18.8917 10.187 18.9973 10.3743L20.3437 12.7078Z" fill="white"/>
<path d="M16.984 12.6723L19.3178 14.0187C19.3801 14.0538 19.4466 14.0693 19.513 14.0693C19.6496 14.0693 19.7784 13.9991 19.8524 13.8742C19.9616 13.6869 19.8955 13.4487 19.7082 13.3395L17.3743 11.9931C17.1871 11.8839 16.9488 11.95 16.8397 12.1373C16.7341 12.3252 16.7964 12.5631 16.984 12.6723V12.6723Z" fill="white"/>
<path d="M19.4775 15.2759C19.4775 15.0614 19.3019 14.8855 19.0871 14.8855H16.3904C16.1759 14.8855 16 15.0611 16 15.2759C16 15.4904 16.1756 15.6663 16.3904 15.6663H19.0871C19.3019 15.666 19.4775 15.4942 19.4775 15.2759Z" fill="white"/>
<path d="M25.0778 15.2759C25.0778 15.4904 25.2534 15.6663 25.4682 15.6663H28.1649C28.3794 15.6663 28.5553 15.4907 28.5553 15.2759C28.5553 15.0614 28.3797 14.8855 28.1649 14.8855H25.4682C25.2537 14.8855 25.0778 15.0611 25.0778 15.2759Z" fill="white"/>
<path d="M24.7037 13.8786C24.7777 14.0035 24.9065 14.0738 25.0431 14.0738C25.1096 14.0738 25.1757 14.0583 25.2383 14.0231L27.5721 12.6729C27.7594 12.5637 27.8221 12.3255 27.7164 12.1382C27.6073 11.9509 27.3691 11.8883 27.1818 11.9939L24.8479 13.3442C24.6568 13.4534 24.5945 13.6913 24.7037 13.8786V13.8786Z" fill="white"/>
<path d="M23.6771 12.8521C23.7394 12.8872 23.8058 12.9027 23.8722 12.9027C24.0089 12.9027 24.1377 12.8325 24.2117 12.7075L25.5582 10.3737C25.6673 10.1864 25.6012 9.94823 25.4139 9.83906C25.2266 9.7299 24.9884 9.79605 24.8792 9.98334L23.5328 12.3172C23.4271 12.5047 23.4898 12.7429 23.6771 12.8521V12.8521Z" fill="white"/>
</svg>
