<svg width="50" height="50" viewBox="0 0 50 50" fill="none" xmlns="http://www.w3.org/2000/svg">
<circle cx="25" cy="25" r="25" fill="#4B7DBE"/>
<path d="M38.7987 24.5786C37.7118 22.2214 36.1198 20.1321 34.1356 18.4586L37.5466 15.0476L35.9547 13.4546L32.2501 17.1558C30.1996 15.9698 27.8688 15.3548 25.5001 15.375C17.0626 15.375 13.1892 22.4186 12.2014 24.5786C12.0688 24.8681 12.0002 25.1827 12.0002 25.5011C12.0002 25.8195 12.0688 26.1341 12.2014 26.4236C13.2883 28.7808 14.8803 30.8701 16.8646 32.5436L13.4547 35.9546L15.0454 37.5453L18.7501 33.8441C20.8005 35.0302 23.1314 35.6451 25.5001 35.625C33.9376 35.625 37.8109 28.5813 38.7987 26.4213C38.931 26.1322 38.9995 25.818 38.9995 25.5C38.9995 25.182 38.931 24.8677 38.7987 24.5786ZM14.2501 25.5123C15.0938 23.6617 18.4047 17.625 25.5001 17.625C27.2659 17.6146 29.0085 18.0266 30.5828 18.8265L28.5972 20.8121C27.5171 20.095 26.2222 19.7737 24.9322 19.9027C23.6422 20.0317 22.4365 20.603 21.5198 21.5197C20.6031 22.4364 20.0318 23.6421 19.9028 24.9321C19.7738 26.2221 20.0951 27.517 20.8122 28.5971L18.4733 30.936C16.6737 29.4705 15.2298 27.6162 14.2501 25.5123ZM28.8751 25.5C28.8751 26.3951 28.5195 27.2535 27.8866 27.8865C27.2536 28.5194 26.3952 28.875 25.5001 28.875C24.9989 28.873 24.5047 28.7576 24.0544 28.5375L28.5376 24.0543C28.7577 24.5046 28.8731 24.9988 28.8751 25.5ZM22.1251 25.5C22.1251 24.6049 22.4806 23.7464 23.1136 23.1135C23.7465 22.4805 24.605 22.125 25.5001 22.125C26.0012 22.1269 26.4955 22.2423 26.9457 22.4625L22.4626 26.9456C22.2424 26.4954 22.127 26.0011 22.1251 25.5ZM25.5001 33.375C23.7343 33.3853 21.9916 32.9733 20.4173 32.1735L22.4029 30.1878C23.483 30.9049 24.7779 31.2262 26.0679 31.0972C27.3579 30.9683 28.5636 30.3969 29.4803 29.4802C30.397 28.5635 30.9684 27.3578 31.0973 26.0678C31.2263 24.7778 30.905 23.4829 30.1879 22.4028L32.5257 20.0651C34.3288 21.5319 35.7736 23.3907 36.7501 25.5C35.8906 27.3641 32.5786 33.375 25.5001 33.375Z" fill="white"/>
</svg>
