<svg width="50" height="50" viewBox="0 0 50 50" fill="none" xmlns="http://www.w3.org/2000/svg">
<circle cx="25" cy="25" r="25" fill="#4B7DBE"/>
<path d="M33 13H17C15.9391 13 14.9218 13.4214 14.1716 14.1716C13.4214 14.9218 13 15.9391 13 17V33C13 34.0609 13.4214 35.0782 14.1716 35.8284C14.9218 36.5786 15.9391 37 17 37H33C34.0609 37 35.0782 36.5786 35.8284 35.8284C36.5786 35.0782 37 34.0609 37 33V17C37 15.9391 36.5786 14.9218 35.8284 14.1716C35.0782 13.4214 34.0609 13 33 13ZM17 14.6H33C33.6366 14.6 34.2469 14.8529 34.6971 15.3029C35.1471 15.753 35.4 16.3634 35.4 17V19.4H14.6V17C14.6 16.3634 14.8529 15.7531 15.3029 15.3029C15.753 14.8529 16.3634 14.6 17 14.6ZM33 35.4H17C16.3634 35.4 15.7531 35.1471 15.3029 34.6971C14.8529 34.247 14.6 33.6366 14.6 33V21H35.4V33C35.4 33.6366 35.1471 34.2469 34.6971 34.6971C34.247 35.1471 33.6366 35.4 33 35.4ZM17.2318 17.5682C17.1209 17.4557 17.0455 17.3129 17.0157 17.1577C16.9859 17.0025 17.0025 16.8418 17.0637 16.6963C17.1019 16.598 17.1589 16.5082 17.2318 16.4321C17.3096 16.3614 17.3989 16.3046 17.4959 16.2641C17.6889 16.1766 17.9107 16.1766 18.1037 16.2641C18.2007 16.3046 18.29 16.3614 18.3678 16.4321C18.4386 16.51 18.4953 16.5993 18.5359 16.6963C18.5805 16.7911 18.6025 16.8952 18.5998 17.0002C18.6011 17.2132 18.5173 17.418 18.3669 17.5691C18.2166 17.7202 18.0123 17.805 17.7991 17.8048C17.586 17.8046 17.3819 17.7194 17.2318 17.5682V17.5682ZM20.4318 17.5682C20.3209 17.4557 20.2455 17.3129 20.2157 17.1577C20.1859 17.0025 20.2025 16.8418 20.2637 16.6963C20.3019 16.598 20.3589 16.5082 20.4318 16.4321C20.4712 16.3959 20.5141 16.3638 20.5598 16.3363C20.6007 16.3045 20.6466 16.2802 20.6959 16.2641L20.8398 16.2002C20.9452 16.1763 21.0545 16.1763 21.1598 16.2002L21.3037 16.2482L21.4477 16.3202L21.5677 16.4163H21.5678C21.6407 16.4923 21.6977 16.582 21.7359 16.6802C21.7971 16.8259 21.8137 16.9864 21.7839 17.1416C21.7541 17.2968 21.6787 17.4397 21.5678 17.5522C21.49 17.6229 21.4007 17.6797 21.3037 17.7202C21.1582 17.7814 20.9975 17.7982 20.8423 17.7682C20.6871 17.7384 20.5443 17.6632 20.4318 17.5522L20.4318 17.5682ZM23.6318 17.5682C23.5209 17.4557 23.4455 17.3129 23.4157 17.1577C23.3859 17.0025 23.4025 16.8418 23.4637 16.6963C23.5019 16.598 23.5589 16.5082 23.6318 16.4321C23.8195 16.2364 24.0936 16.1491 24.3598 16.2002L24.5037 16.2482C24.553 16.2641 24.5989 16.2886 24.6398 16.3202C24.6855 16.3479 24.7284 16.38 24.7679 16.4163C24.8407 16.4923 24.8977 16.582 24.9359 16.6802C24.9971 16.8259 25.0137 16.9864 24.9839 17.1416C24.9541 17.2968 24.8787 17.4397 24.7679 17.5522C24.69 17.6229 24.6007 17.6797 24.5037 17.7202C24.3102 17.8057 24.0895 17.8057 23.8959 17.7202C23.8 17.6845 23.7107 17.6332 23.6318 17.5682L23.6318 17.5682ZM17 24.2C17 23.9879 17.0843 23.7843 17.2343 23.6343C17.3843 23.4843 17.5879 23.4 17.8 23.4H26.6C26.8859 23.4 27.15 23.5525 27.2928 23.8C27.4357 24.0475 27.4357 24.3525 27.2928 24.6C27.15 24.8475 26.8859 25 26.6 25H17.8C17.5879 25 17.3843 24.9157 17.2343 24.7657C17.0843 24.6157 17 24.4121 17 24.2ZM33 28.2C33 28.4121 32.9157 28.6157 32.7657 28.7657C32.6157 28.9157 32.4121 29 32.2 29H17.8C17.5141 29 17.25 28.8475 17.1072 28.6C16.9643 28.3525 16.9643 28.0475 17.1072 27.8C17.25 27.5525 17.5141 27.4 17.8 27.4H32.2C32.4121 27.4 32.6157 27.4843 32.7657 27.6343C32.9157 27.7843 33 27.9879 33 28.2ZM22.6 32.2C22.6 32.4121 22.5157 32.6157 22.3657 32.7657C22.2157 32.9157 22.0121 33 21.8 33H17.8C17.5141 33 17.25 32.8475 17.1072 32.6C16.9643 32.3525 16.9643 32.0475 17.1072 31.8C17.25 31.5525 17.5141 31.4 17.8 31.4H21.8C22.0121 31.4 22.2157 31.4843 22.3657 31.6343C22.5157 31.7843 22.6 31.9879 22.6 32.2Z" fill="white"/>
</svg>
