<svg width="60" height="59" viewBox="0 0 60 59" fill="none" xmlns="http://www.w3.org/2000/svg">
<ellipse cx="30" cy="29.5" rx="30" ry="29.5" fill="#DA5AFF"/>
<path d="M18.5943 32.1528C20.3556 32.1528 22.0449 31.4378 23.2903 30.1654C24.5355 28.8927 25.235 27.1671 25.235 25.3674C25.235 23.5677 24.5352 21.8418 23.2895 20.5694C22.0443 19.297 20.355 18.5823 18.5936 18.5823C16.8323 18.5827 15.1434 19.2978 13.898 20.5705C12.6524 21.8428 11.9533 23.5688 11.9533 25.3685C11.9554 27.1674 12.6556 28.892 13.9009 30.1639C15.1458 31.4355 16.8337 32.151 18.5942 32.1528H18.5943ZM18.5943 21.2076C19.6744 21.2076 20.71 21.6462 21.4737 22.4265C22.2374 23.2068 22.6663 24.2649 22.6663 25.3685C22.6663 26.4718 22.2374 27.5302 21.4737 28.3105C20.7101 29.0909 19.6745 29.5291 18.5943 29.5291C17.5146 29.5291 16.4787 29.0908 15.7149 28.3109C14.9513 27.5306 14.5223 26.4725 14.522 25.3689C14.5234 24.2656 14.9527 23.2082 15.7164 22.428C16.4797 21.6481 17.5147 21.2091 18.5943 21.2076V21.2076ZM50.7837 37.296H50.784C50.784 37.6442 50.6485 37.9777 50.4077 38.2238C50.1669 38.4698 49.8401 38.6083 49.4997 38.6083H32.8032C31.9131 38.6042 31.0526 38.2827 30.3703 37.6988L27.0813 41.0611V42.5044C27.0813 43.229 26.5061 43.8166 25.7969 43.8166C25.0877 43.8166 24.5126 43.229 24.5126 42.5044V40.5169C24.5226 39.5752 24.1607 38.6694 23.5091 38.0038C22.8577 37.3381 21.9711 36.9683 21.0497 36.9785H16.1402C15.2221 36.9796 14.342 37.3527 13.693 38.0161C13.0437 38.6796 12.6785 39.5789 12.6771 40.5169V42.5044C12.6771 43.229 12.1023 43.8166 11.3927 43.8166C10.6836 43.8166 10.1084 43.229 10.1084 42.5044V40.5169C10.1102 38.8828 10.7463 37.3161 11.8768 36.1609C13.0078 35.0053 14.5412 34.3554 16.1402 34.354H21.0494C22.1986 34.3569 23.3231 34.6956 24.2903 35.3301C25.2575 35.9646 26.0269 36.8686 26.5074 37.9352L29.0184 35.3693H29.0188C28.9754 35.1397 28.9525 34.9065 28.95 34.6725V20.2376C28.9511 19.1937 29.3571 18.1931 30.0795 17.4548C30.8019 16.717 31.7813 16.3018 32.803 16.3008H49.4995C50.2087 16.3008 50.7838 16.8884 50.7838 17.613C50.7838 18.3377 50.2087 18.9253 49.4995 18.9253H32.803C32.0935 18.9253 31.5187 19.513 31.5187 20.2376V32.8147L36.5893 27.633V27.6334C36.8287 27.38 37.1573 27.2358 37.5021 27.2329C37.8465 27.2296 38.1776 27.368 38.4213 27.6169C38.665 27.8659 38.8004 28.2042 38.7976 28.5564C38.7943 28.9083 38.6532 29.2444 38.4055 29.4886L32.2113 35.8182C32.3916 35.9229 32.5948 35.9804 32.8019 35.9848H49.4984C49.8392 35.9844 50.1663 36.1228 50.4071 36.3689C50.6483 36.6149 50.7838 36.9488 50.7838 37.297L50.7837 37.296Z" fill="white"/>
</svg>
